<?xml version="1.0" encoding="UTF-8"?>
<svg version="1.1" xmlns="http://www.w3.org/2000/svg" width="1700" height="2200">
<path d="M0 0 C561 0 1122 0 1700 0 C1700 726 1700 1452 1700 2200 C1139 2200 578 2200 0 2200 C0 1474 0 748 0 0 Z " fill="#FDFDFD" transform="translate(0,0)"/>
<path d="M0 0 C2.84189775 1.40559649 5.54616015 2.483732 8.56640625 3.421875 C9.78328125 3.81375 11.00015625 4.205625 12.25390625 4.609375 C12.58390625 5.269375 12.91390625 5.929375 13.25390625 6.609375 C14.24390625 6.939375 15.23390625 7.269375 16.25390625 7.609375 C16.25390625 8.269375 16.25390625 8.929375 16.25390625 9.609375 C18.72890625 10.599375 18.72890625 10.599375 21.25390625 11.609375 C21.25390625 12.599375 21.25390625 13.589375 21.25390625 14.609375 C21.91390625 14.609375 22.57390625 14.609375 23.25390625 14.609375 C23.25390625 15.269375 23.25390625 15.929375 23.25390625 16.609375 C23.91390625 16.609375 24.57390625 16.609375 25.25390625 16.609375 C25.25390625 17.269375 25.25390625 17.929375 25.25390625 18.609375 C25.91390625 18.609375 26.57390625 18.609375 27.25390625 18.609375 C27.25390625 19.269375 27.25390625 19.929375 27.25390625 20.609375 C28.24390625 20.609375 29.23390625 20.609375 30.25390625 20.609375 C30.58390625 21.929375 30.91390625 23.249375 31.25390625 24.609375 C31.91390625 24.609375 32.57390625 24.609375 33.25390625 24.609375 C42.01179671 34.26988927 42.77153215 46.80299938 42.62890625 59.234375 C42.62310547 60.47533936 42.61730469 61.71630371 42.61132812 62.99487305 C42.438237 75.64094237 41.04201141 88.1005649 39.25390625 100.609375 C41.72890625 101.104375 41.72890625 101.104375 44.25390625 101.609375 C47.73173703 110.40624108 46.4481186 119.26756089 42.97924805 127.87866211 C39.6843971 135.47911394 36.34849376 141.87964999 29.25390625 146.609375 C26.93002678 147.00325288 24.59596876 147.34423585 22.25390625 147.609375 C22.3003125 148.51558594 22.34671875 149.42179687 22.39453125 150.35546875 C22.60170277 157.34750751 22.4155354 162.43748813 19.1484375 168.6484375 C17.7659775 171.67898301 17.93412725 174.34762923 18.25390625 177.609375 C18.31578125 178.7540625 18.31578125 178.7540625 18.37890625 179.921875 C19.19188888 181.95305458 19.19188888 181.95305458 22.12890625 182.671875 C23.16015625 182.98125 24.19140625 183.290625 25.25390625 183.609375 C27.72087641 185.66415812 28.98030958 187.77790043 30.31640625 190.671875 C31.48289923 193.18756469 32.26441651 194.61988526 34.25390625 196.609375 C34.93479306 198.270283 35.59924693 199.93795542 36.25390625 201.609375 C37.2186108 203.49335479 38.24313188 205.3475623 39.31640625 207.171875 C39.84363281 208.10128906 40.37085938 209.03070312 40.9140625 209.98828125 C43.21951232 212.57084691 44.2670483 213.22336199 47.34375 214.4934082 C52.05382484 216.50446896 56.60201146 218.74633486 61.15625 221.0859375 C61.96002579 221.49725922 62.76380157 221.90858093 63.5919342 222.33236694 C65.27229809 223.19331021 66.9520156 224.05551617 68.63110352 224.91894531 C71.20679319 226.24228049 73.78589075 227.5588038 76.36523438 228.875 C78.00411614 229.71573681 79.64279547 230.55686838 81.28125 231.3984375 C82.05202377 231.79116852 82.82279755 232.18389954 83.6169281 232.58853149 C89.024734 235.38020275 89.024734 235.38020275 91.25390625 237.609375 C91.50230324 240.60853255 91.50230324 240.60853255 91.50000191 244.55532265 C91.5023094 245.28220825 91.50461689 246.00909386 91.5069943 246.7580063 C91.51232875 249.21755511 91.50328387 251.67684733 91.49441528 254.13638306 C91.49528944 255.90335655 91.49704199 257.67032979 91.49960327 259.43730164 C91.50411013 264.32206369 91.49603403 269.20673882 91.48605171 274.09148982 C91.47735229 279.4289453 91.48023868 284.76639642 91.48168755 290.10385704 C91.48275327 300.47674957 91.47349525 310.84960763 91.46068489 321.22249129 C91.44631683 333.21433033 91.44469715 345.20614849 91.44311523 357.19799805 C91.43260327 388.87679585 91.40468121 420.55558594 91.37890625 452.234375 C91.33765625 522.978125 91.29640625 593.721875 91.25390625 666.609375 C-83.64609375 666.609375 -258.54609375 666.609375 -438.74609375 666.609375 C-438.74609375 631.959375 -438.74609375 597.309375 -438.74609375 561.609375 C-454.91609375 561.609375 -471.08609375 561.609375 -487.74609375 561.609375 C-489.72609375 560.949375 -491.70609375 560.289375 -493.74609375 559.609375 C-495.0494197 555.69939715 -494.96073266 551.93453341 -495.02734375 547.85546875 C-495.04575317 546.99881119 -495.0641626 546.14215363 -495.08312988 545.25953674 C-495.16181611 541.59250371 -495.22963744 537.92528817 -495.29833984 534.25805664 C-495.35001479 531.58210025 -495.40727622 528.90630379 -495.46484375 526.23046875 C-495.47841919 525.39712509 -495.49199463 524.56378143 -495.50598145 523.70518494 C-495.48985424 519.52315482 -495.48985424 519.52315482 -496.74609375 515.609375 C-496.85870667 514.17563602 -496.91262497 512.73704435 -496.93554688 511.29907227 C-496.9522644 510.40797256 -496.96898193 509.51687286 -496.98620605 508.59877014 C-497.00656921 507.15189064 -497.00656921 507.15189064 -497.02734375 505.67578125 C-497.04575317 504.68690414 -497.0641626 503.69802704 -497.08312988 502.67918396 C-497.14199665 499.51014258 -497.19475753 496.34104679 -497.24609375 493.171875 C-497.31368135 489.00639445 -497.38737529 484.84108841 -497.46484375 480.67578125 C-497.47841919 479.71321915 -497.49199463 478.75065704 -497.50598145 477.75892639 C-497.53105774 476.4175486 -497.53105774 476.4175486 -497.55664062 475.04907227 C-497.5691687 474.26234634 -497.58169678 473.47562042 -497.59460449 472.66505432 C-497.67619075 470.40966684 -497.67619075 470.40966684 -498.74609375 467.609375 C-498.8422872 465.17341745 -498.8759164 462.73472633 -498.87109375 460.296875 C-498.87367187 459.00136719 -498.87625 457.70585938 -498.87890625 456.37109375 C-498.76005907 453.00492218 -498.31740042 449.91932635 -497.74609375 446.609375 C-497.70568582 444.83900275 -497.70311198 443.06718663 -497.74609375 441.296875 C-497.78345227 439.73482167 -497.79315337 438.17116616 -497.74609375 436.609375 C-495.9476417 434.81092295 -493.21148596 435.27795814 -490.77441406 435.13134766 C-489.48621765 435.05266449 -488.19802124 434.97398132 -486.87078857 434.89291382 C-485.43862017 434.81104408 -484.00642944 434.72956406 -482.57421875 434.6484375 C-481.84514565 434.6057436 -481.11607254 434.5630497 -480.36490631 434.51906204 C-462.89727826 433.49641891 -445.41774567 432.77052017 -427.93432617 432.08135986 C-424.6391624 431.95028909 -421.34418906 431.81472594 -418.04920578 431.67920494 C-414.81821433 431.54683148 -411.58712279 431.41704728 -408.35599518 431.28804398 C-406.84277675 431.22737758 -405.32958654 431.16600227 -403.81642914 431.10383224 C-395.68430355 430.77139354 -387.5722477 430.54825601 -379.4319458 430.63760376 C-377.06842348 430.61276274 -374.83326051 430.43955406 -372.49609375 430.109375 C-367.2409149 429.40213598 -361.97528938 429.55918636 -356.68457031 429.64648438 C-353.17509873 429.68801658 -350.12208414 429.53009965 -346.74609375 428.609375 C-344.83048121 428.54248909 -342.91273783 428.52405781 -340.99609375 428.546875 C-340.01125 428.55589844 -339.02640625 428.56492187 -338.01171875 428.57421875 C-336.89023438 428.59162109 -336.89023438 428.59162109 -335.74609375 428.609375 C-335.74609375 427.289375 -335.74609375 425.969375 -335.74609375 424.609375 C-337.06609375 424.609375 -338.38609375 424.609375 -339.74609375 424.609375 C-341.18857737 395.1727345 -341.18857737 395.1727345 -340.74609375 386.609375 C-339.74609375 385.609375 -339.74609375 385.609375 -337.2421875 385.51171875 C-334.41015625 385.54427083 -331.578125 385.57682292 -328.74609375 385.609375 C-328.74609375 380.659375 -328.74609375 375.709375 -328.74609375 370.609375 C-326.5 369.99088542 -324.25390625 369.37239583 -322.0078125 368.75390625 C-318.98131702 367.22236363 -318.1816113 365.65388655 -316.74609375 362.609375 C-316.22009565 360.73118985 -315.76390379 358.83236021 -315.37109375 356.921875 C-314.20363053 351.94957051 -312.54741953 347.87895055 -310.1484375 343.39453125 C-308.39598293 339.91402956 -306.93710625 336.35280136 -305.49609375 332.734375 C-305.10877075 331.76987427 -305.10877075 331.76987427 -304.71362305 330.78588867 C-303.51904379 327.76145107 -302.41848799 324.79524296 -301.74609375 321.609375 C-301.08609375 321.609375 -300.42609375 321.609375 -299.74609375 321.609375 C-299.5759375 321.04089844 -299.40578125 320.47242188 -299.23046875 319.88671875 C-298.02937878 316.05984168 -296.82045948 312.49351344 -294.74609375 309.046875 C-292.9081625 305.88793066 -291.72760313 302.98062999 -290.52734375 299.5625 C-289.74609375 297.609375 -289.74609375 297.609375 -287.74609375 294.359375 C-285.23992989 290.24620531 -284.44194434 285.75558426 -283.45703125 281.0859375 C-283.22242188 280.26867188 -282.9878125 279.45140625 -282.74609375 278.609375 C-282.08609375 278.279375 -281.42609375 277.949375 -280.74609375 277.609375 C-279.68140111 274.47880505 -278.73727765 271.34475187 -277.86523438 268.15625 C-276.92680737 265.05431121 -276.06979912 262.91400268 -273.69140625 260.67578125 C-269.45565244 259.14214625 -265.4089797 259.03868224 -260.93359375 258.921875 C-260.04994141 258.88771484 -259.16628906 258.85355469 -258.25585938 258.81835938 C-256.08637208 258.73627067 -253.91625485 258.67113621 -251.74609375 258.609375 C-251.62492187 257.98361572 -251.50375 257.35785645 -251.37890625 256.71313477 C-251.12753906 255.48808228 -251.12753906 255.48808228 -250.87109375 254.23828125 C-250.70867187 253.42689697 -250.54625 252.6155127 -250.37890625 251.77954102 C-249.74609375 249.609375 -249.74609375 249.609375 -247.74609375 247.546875 C-245.74609375 246.609375 -245.74609375 246.609375 -243.74609375 246.609375 C-243.74609375 245.949375 -243.74609375 245.289375 -243.74609375 244.609375 C-242.59109375 243.990625 -241.43609375 243.371875 -240.24609375 242.734375 C-239.59640625 242.38632813 -238.94671875 242.03828125 -238.27734375 241.6796875 C-232.04533265 239.044547 -226.00473654 238.22065808 -219.30859375 238.234375 C-218.56649658 238.23453613 -217.82439941 238.23469727 -217.05981445 238.23486328 C-211.21284184 238.35660846 -206.77385427 239.5548154 -201.74609375 242.609375 C-201.04097656 242.93292969 -200.33585937 243.25648438 -199.609375 243.58984375 C-197.00280853 245.01607823 -196.22933999 247.07549601 -194.74609375 249.609375 C-194.06546875 250.0425 -193.38484375 250.475625 -192.68359375 250.921875 C-189.16280996 253.98836411 -189.02797123 258.45207271 -188.453125 262.8515625 C-188.10322994 268.31749067 -189.43971908 271.64981299 -192.45703125 276.17578125 C-192.88242188 276.64886719 -193.3078125 277.12195312 -193.74609375 277.609375 C-194.40609375 277.609375 -195.06609375 277.609375 -195.74609375 277.609375 C-195.74609375 278.269375 -195.74609375 278.929375 -195.74609375 279.609375 C-205.46377407 287.84827788 -216.41161148 288.57752498 -228.74609375 287.609375 C-234.10986873 286.31737081 -238.21163386 284.69280773 -242.74609375 281.609375 C-243.43359375 279.484375 -243.43359375 279.484375 -243.74609375 277.609375 C-244.38546875 277.3 -245.02484375 276.990625 -245.68359375 276.671875 C-247.74609375 275.609375 -247.74609375 275.609375 -248.99609375 272.984375 C-249.24359375 272.200625 -249.49109375 271.416875 -249.74609375 270.609375 C-255.38252638 269.53005811 -260.05718215 269.82167955 -265.74609375 270.609375 C-266.73609375 274.239375 -267.72609375 277.869375 -268.74609375 281.609375 C-269.40609375 281.609375 -270.06609375 281.609375 -270.74609375 281.609375 C-271.13796875 282.846875 -271.52984375 284.084375 -271.93359375 285.359375 C-273.89740496 291.24158885 -276.28782849 296.91921394 -278.74609375 302.609375 C-279.184375 303.63417969 -279.62265625 304.65898438 -280.07421875 305.71484375 C-280.5021875 306.69066406 -280.93015625 307.66648437 -281.37109375 308.671875 C-281.75523437 309.54972656 -282.139375 310.42757813 -282.53515625 311.33203125 C-283.74609375 313.609375 -283.74609375 313.609375 -285.20703125 314.99609375 C-287.53413679 317.43542012 -288.46843244 320.25838452 -289.74609375 323.359375 C-290.48859375 325.14601563 -290.48859375 325.14601563 -291.24609375 326.96875 C-292.25343629 329.41365429 -293.25333878 331.86163616 -294.24609375 334.3125 C-295.74609375 337.609375 -295.74609375 337.609375 -297.34375 339.62890625 C-299.29628418 342.38638488 -299.59714988 344.98583475 -300.18359375 348.296875 C-301.21427937 353.55995051 -302.54113111 358.06931709 -304.9765625 362.83984375 C-305.94549382 364.74629121 -305.94549382 364.74629121 -305.74609375 367.609375 C-303.43609375 368.269375 -301.12609375 368.929375 -298.74609375 369.609375 C-297.41637302 374.59582774 -297.67779741 379.48714966 -297.74609375 384.609375 C-294.44609375 384.609375 -291.14609375 384.609375 -287.74609375 384.609375 C-286.53531674 388.24170602 -286.62165211 391.56059487 -286.6484375 395.33984375 C-286.65055992 396.46547478 -286.65055992 396.46547478 -286.65272522 397.61384583 C-286.65831815 400.0082296 -286.67086931 402.40251953 -286.68359375 404.796875 C-286.68860967 406.42122261 -286.69317241 408.04557168 -286.69726562 409.66992188 C-286.70828527 413.64977569 -286.72554502 417.62955944 -286.74609375 421.609375 C-288.39609375 421.939375 -290.04609375 422.269375 -291.74609375 422.609375 C-291.74609375 424.259375 -291.74609375 425.909375 -291.74609375 427.609375 C-290.47894531 427.5371875 -289.21179687 427.465 -287.90625 427.390625 C-286.20703838 427.2967459 -284.50781922 427.20300321 -282.80859375 427.109375 C-281.97779297 427.06167969 -281.14699219 427.01398438 -280.29101562 426.96484375 C-276.09212991 426.73611068 -271.94714758 426.60876404 -267.7421875 426.703125 C-263.74589265 427.06939245 -263.74589265 427.06939245 -261.74609375 424.609375 C-259.35284424 424.29945374 -259.35284424 424.29945374 -256.30566406 424.21508789 C-254.59440338 424.16136269 -254.59440338 424.16136269 -252.84857178 424.10655212 C-251.60303528 424.07783524 -250.35749878 424.04911835 -249.07421875 424.01953125 C-247.78082581 423.98271744 -246.48743286 423.94590363 -245.15484619 423.90797424 C-241.0189195 423.79252835 -236.88265952 423.69858793 -232.74609375 423.609375 C-231.43648682 423.58075378 -230.12687988 423.55213257 -228.77758789 423.52264404 C-220.99139955 423.35934434 -213.20495482 423.22542926 -205.41796875 423.10668945 C-202.09587746 423.0560226 -198.77384055 423.00307917 -195.45180893 422.94871426 C-192.21137795 422.89580395 -188.97092428 422.84435048 -185.73046875 422.79296875 C-184.55546814 422.77423203 -183.38046753 422.7554953 -182.16986084 422.7361908 C-181.06289856 422.71939774 -179.95593628 422.70260468 -178.81542969 422.68530273 C-177.2559259 422.6616011 -177.2559259 422.6616011 -175.66491699 422.63742065 C-173.00331499 422.61184652 -170.34599605 422.63035247 -167.68457031 422.66040039 C-164.58501573 422.62024375 -162.6378273 422.35491779 -159.74609375 421.609375 C-157.53832879 421.55900504 -155.32881366 421.57269291 -153.12109375 421.625 C-152.14394913 421.64811249 -152.14394913 421.64811249 -151.14706421 421.67169189 C-149.01310175 421.72631115 -146.87967803 421.79163651 -144.74609375 421.859375 C-144.01755188 421.88104736 -143.28901001 421.90271973 -142.53839111 421.92504883 C-126.52544702 422.42089512 -110.6583188 423.88911303 -94.796875 426.1796875 C-91.22904495 426.68219877 -87.67291877 426.91769098 -84.078125 427.1328125 C-81.2974837 427.70105076 -79.90099568 428.80071524 -77.74609375 430.609375 C-76.08330048 431.6158025 -74.41625891 432.61522907 -72.74609375 433.609375 C-66.88693882 437.32768486 -66.88693882 437.32768486 -65.74609375 439.609375 C-64.26109375 440.29 -64.26109375 440.29 -62.74609375 440.984375 C-59.74609375 442.609375 -59.74609375 442.609375 -58.87109375 444.796875 C-58.80921875 445.6940625 -58.80921875 445.6940625 -58.74609375 446.609375 C-58.18921875 446.7125 -57.63234375 446.815625 -57.05859375 446.921875 C-52.33798567 448.32529902 -48.5124063 451.44171105 -44.58984375 454.328125 C-41.64952192 456.37139949 -38.55479668 458.14154174 -35.45703125 459.93359375 C-31.08977471 462.48237725 -26.92259038 465.15572112 -22.87109375 468.18359375 C-15.879749 473.30592448 -8.63287353 478.00881941 -1.37109375 482.734375 C1.4631445 484.58455394 4.29606883 486.43673965 7.12890625 488.2890625 C7.82422455 488.74337646 8.51954285 489.19769043 9.2359314 489.66577148 C16.26883451 494.26466701 23.25957444 498.92548204 30.23583984 503.60986328 C31.01266113 504.1304834 31.78948242 504.65110352 32.58984375 505.1875 C33.58830322 505.85894043 33.58830322 505.85894043 34.60693359 506.54394531 C36.27440809 507.66559323 36.27440809 507.66559323 38.25390625 508.609375 C38.61925268 505.74066514 38.61925268 505.74066514 38.25390625 502.609375 C36.48118882 500.7691172 36.48118882 500.7691172 33.87890625 499.484375 C32.38423828 498.61425781 32.38423828 498.61425781 30.859375 497.7265625 C30.2926709 497.40010742 29.7259668 497.07365234 29.14208984 496.73730469 C25.40118376 494.50262844 21.80774322 492.03848715 18.19140625 489.609375 C17.40483643 489.08408203 16.6182666 488.55878906 15.80786133 488.01757812 C11.09287666 484.86403336 6.42650321 481.65104141 1.79296875 478.37890625 C-7.25679197 472.07191916 -16.4744866 466.05931821 -25.94140625 460.3984375 C-28.74609375 458.609375 -28.74609375 458.609375 -31.34765625 456.52734375 C-33.51694601 454.79261855 -35.53233218 453.55156839 -37.99609375 452.296875 C-43.02061315 449.5797888 -47.33605505 446.21833925 -51.74609375 442.609375 C-52.37257813 442.11824219 -52.9990625 441.62710937 -53.64453125 441.12109375 C-55.05287231 440.00037164 -56.40657288 438.81150912 -57.74609375 437.609375 C-57.74609375 436.949375 -57.74609375 436.289375 -57.74609375 435.609375 C-59.39609375 435.609375 -61.04609375 435.609375 -62.74609375 435.609375 C-63.07609375 434.619375 -63.40609375 433.629375 -63.74609375 432.609375 C-64.85984375 432.67125 -64.85984375 432.67125 -65.99609375 432.734375 C-68.83368327 432.60539366 -70.33383313 432.03886278 -72.74609375 430.609375 C-72.74609375 429.949375 -72.74609375 429.289375 -72.74609375 428.609375 C-73.73609375 428.279375 -74.72609375 427.949375 -75.74609375 427.609375 C-76.30296875 427.01125 -76.85984375 426.413125 -77.43359375 425.796875 C-84.52215902 419.09147542 -92.79583635 418.62166947 -102.09912109 417.8359375 C-104.89681363 417.59647442 -107.68987938 417.32099951 -110.484375 417.046875 C-137.0774028 414.61095199 -163.94571431 415.06685772 -190.59741211 416.34106445 C-191.65323486 416.389646 -192.70905762 416.43822754 -193.796875 416.48828125 C-194.71122314 416.5354126 -195.62557129 416.58254395 -196.56762695 416.63110352 C-198.74609375 416.609375 -198.74609375 416.609375 -200.74609375 415.609375 C-201.00131678 410.81118203 -200.16324515 407.24714848 -198.55859375 402.734375 C-198.09893332 401.41191886 -197.64064677 400.08898454 -197.18359375 398.765625 C-196.94640625 398.085 -196.70921875 397.404375 -196.46484375 396.703125 C-195.2730097 393.2312606 -194.16050427 389.73564044 -193.05859375 386.234375 C-192.66285156 384.98914062 -192.26710938 383.74390625 -191.859375 382.4609375 C-189.17449343 373.47991669 -187.70910905 364.20778945 -186.12109375 354.984375 C-185.89164063 353.71980469 -185.6621875 352.45523437 -185.42578125 351.15234375 C-183.38733593 339.24927909 -183.37670052 327.86849039 -184.51025391 315.87890625 C-184.96398902 309.58861576 -184.93204828 303.28656069 -184.93139648 296.98242188 C-184.9335903 294.61310026 -184.95184131 292.24424029 -184.97070312 289.875 C-185.04001432 271.32141217 -181.15625737 255.58848924 -172.55078125 239.140625 C-170.74420465 235.79365496 -170.74420465 235.79365496 -169.75390625 232.828125 C-168.49836895 230.06399637 -167.37187124 229.11439381 -164.74609375 227.609375 C-161.94140625 226.73046875 -161.94140625 226.73046875 -158.87109375 226.046875 C-154.72466726 225.10836159 -150.76911075 223.98285054 -146.74609375 222.609375 C-145.19000448 222.11469124 -143.63259289 221.62415683 -142.07421875 221.13671875 C-141.24535156 220.87697266 -140.41648437 220.61722656 -139.5625 220.34960938 C-137.83621677 219.80965321 -136.1096489 219.27060631 -134.3828125 218.73242188 C-133.55910156 218.47396484 -132.73539063 218.21550781 -131.88671875 217.94921875 C-131.13938477 217.71581787 -130.39205078 217.48241699 -129.62207031 217.24194336 C-127.688076 216.63785974 -127.688076 216.63785974 -125.74609375 215.609375 C-123.85525834 215.26793431 -121.95824209 214.96027832 -120.05859375 214.671875 C-115.49321927 213.93727958 -111.17118669 212.97094206 -106.74609375 211.609375 C-104.0848353 210.91924403 -101.41610841 210.26516807 -98.74609375 209.609375 C-98.74609375 208.949375 -98.74609375 208.289375 -98.74609375 207.609375 C-97.11426268 206.55348431 -95.43816376 205.5657624 -93.74609375 204.609375 C-89.58316803 202.2351823 -89.58316803 202.2351823 -86.74609375 198.609375 C-86.08609375 198.609375 -85.42609375 198.609375 -84.74609375 198.609375 C-84.41609375 197.619375 -84.08609375 196.629375 -83.74609375 195.609375 C-83.08609375 195.609375 -82.42609375 195.609375 -81.74609375 195.609375 C-81.68823728 191.65110265 -81.65254658 187.6929383 -81.62109375 183.734375 C-81.60433594 182.60644531 -81.58757812 181.47851562 -81.5703125 180.31640625 C-81.56386719 179.24003906 -81.55742188 178.16367188 -81.55078125 177.0546875 C-81.54030762 176.05969238 -81.52983398 175.06469727 -81.51904297 174.03955078 C-81.50229974 171.42766083 -81.50229974 171.42766083 -83.74609375 169.609375 C-83.74609375 168.619375 -83.74609375 167.629375 -83.74609375 166.609375 C-84.40609375 166.609375 -85.06609375 166.609375 -85.74609375 166.609375 C-86.58689394 164.19507731 -87.41890777 161.77833507 -88.24609375 159.359375 C-88.48457031 158.67746094 -88.72304687 157.99554687 -88.96875 157.29296875 C-90.14030662 153.84524497 -90.74609375 151.29234596 -90.74609375 147.609375 C-91.40609375 147.609375 -92.06609375 147.609375 -92.74609375 147.609375 C-92.8440625 146.76632812 -92.94203125 145.92328125 -93.04296875 145.0546875 C-93.26726562 143.41113281 -93.26726562 143.41113281 -93.49609375 141.734375 C-93.70492187 140.09855469 -93.70492187 140.09855469 -93.91796875 138.4296875 C-94.4308237 135.50446779 -94.4308237 135.50446779 -96.66015625 134.4609375 C-97.34851562 134.17992187 -98.036875 133.89890625 -98.74609375 133.609375 C-100.16015625 131.875 -100.16015625 131.875 -101.37109375 129.859375 C-101.77585937 129.20453125 -102.180625 128.5496875 -102.59765625 127.875 C-106.7233514 119.73587352 -107.28129463 110.23612934 -104.8828125 101.4453125 C-102.4549243 95.31820555 -102.4549243 95.31820555 -100.74609375 93.609375 C-100.62223847 90.58508205 -100.55976512 87.58028807 -100.53515625 84.5546875 C-100.50701494 82.63931544 -100.47835034 80.72395101 -100.44921875 78.80859375 C-100.4085073 75.80127793 -100.37162792 72.79409358 -100.34472656 69.78662109 C-100.24418242 59.43577486 -99.95972407 49.25078717 -98.36328125 39.0078125 C-98.24377106 38.2369632 -98.12426086 37.46611389 -98.00112915 36.67190552 C-96.71954653 29.24628644 -94.14054319 23.79144454 -88.74609375 18.609375 C-87.60140625 17.43375 -87.60140625 17.43375 -86.43359375 16.234375 C-84.50918959 14.35472442 -82.63763536 12.66789162 -80.55859375 10.984375 C-77.62729029 8.73215165 -77.62729029 8.73215165 -75.74609375 5.609375 C-73.12109375 4.921875 -73.12109375 4.921875 -70.74609375 4.609375 C-70.41609375 3.619375 -70.08609375 2.629375 -69.74609375 1.609375 C-67.92578125 0.51171875 -67.92578125 0.51171875 -65.62109375 -0.453125 C-64.87601563 -0.77410156 -64.1309375 -1.09507813 -63.36328125 -1.42578125 C-60.20097234 -2.59158767 -56.98777014 -3.46887037 -53.74609375 -4.390625 C-51.88167072 -5.04169336 -50.0172615 -5.69280366 -48.15356445 -6.34594727 C-30.34652968 -12.39932394 -16.25726802 -8.50100719 0 0 Z " fill="#000000" transform="translate(1608.74609375,1533.390625)"/>
<path d="M0 0 C0.75 1.5625 0.75 1.5625 1 4 C-0.13084437 6.50286409 -1.52139516 8.67007722 -3 11 C-3.66 11 -4.32 11 -5 11 C-5.268125 12.155 -5.53625 13.31 -5.8125 14.5 C-6.88385122 18.81623514 -8.37472237 22.86292967 -10 27 C-10.66 27 -11.32 27 -12 27 C-13.96865404 32.65464458 -15.67279277 38.32752887 -17.15625 44.12890625 C-18.23995222 47.81650407 -19.65044354 51.40118276 -21 55 C16.95 55 54.9 55 94 55 C94.33 54.01 94.66 53.02 95 52 C96.48949682 55.87269174 95.29622344 58.18539958 94 62 C93.60268321 63.95392779 93.22948521 65.91284948 92.875 67.875 C91.19891822 76.02843951 88.51097917 83.79354855 85.78076172 91.64794922 C85.26666748 93.13705811 85.26666748 93.13705811 84.7421875 94.65625 C84.4313623 95.54119141 84.12053711 96.42613281 83.80029297 97.33789062 C82.93732231 100.20849223 82.43470742 103.03682584 82 106 C82.70455322 105.96970703 83.40910645 105.93941406 84.13500977 105.90820312 C114.46859881 104.64824096 144.96603906 103.75889404 175.22167969 106.73535156 C177.82615507 106.98344043 180.42945872 107.18235362 183.0390625 107.3671875 C193.6966914 108.21843943 202.70749544 110.75629919 210 119 C210 119.66 210 120.32 210 121 C210.95712891 121.18175781 210.95712891 121.18175781 211.93359375 121.3671875 C212.75988281 121.53476563 213.58617187 121.70234375 214.4375 121.875 C215.26121094 122.03742188 216.08492187 122.19984375 216.93359375 122.3671875 C217.61550781 122.57601563 218.29742188 122.78484375 219 123 C219.33 123.66 219.66 124.32 220 125 C220.763125 125.103125 221.52625 125.20625 222.3125 125.3125 C225.93453858 126.23906801 226.7533164 128.07250318 229 131 C230.34447103 131.95096732 231.69566814 132.89539037 233.09375 133.765625 C236.61518175 136.04589638 239.94353503 138.6050805 243.31640625 141.09765625 C245.82036685 142.8726618 248.35161037 144.45171068 251 146 C262.31406935 152.84918829 273.29454702 160.10057435 284.15551758 167.65087891 C289.12454506 171.10022014 294.15030977 174.45902971 299.19238281 177.80029297 C302.98679276 180.31862502 306.77380911 182.84807613 310.5625 185.375 C312.10544444 186.4036823 313.64841169 187.43233038 315.19140625 188.4609375 C317.4609375 189.97395833 319.73046875 191.48697917 322 193 C322.1875 196.625 322.1875 196.625 322 200 C316.59559127 197.41904482 311.72231634 194.61324136 306.84765625 191.1484375 C305.44388349 190.16749493 304.03903974 189.18808377 302.63330078 188.20996094 C301.51438446 187.43090393 301.51438446 187.43090393 300.37286377 186.6361084 C296.11406051 183.69962976 291.80420397 180.83999555 287.49609375 177.9765625 C286.59388092 177.37624207 285.69166809 176.77592163 284.76211548 176.15740967 C281.98790435 174.31227683 279.21283721 172.46843855 276.4375 170.625 C272.72695349 168.16022114 269.01747022 165.69385343 265.30859375 163.2265625 C264.47621689 162.67441071 263.64384003 162.12225891 262.78623962 161.55337524 C259.18056845 159.15462821 255.59897683 156.73611499 252.08056641 154.21069336 C249.4425334 152.3175733 246.80074056 150.63490384 244 149 C242.18355748 147.86042689 240.37115399 146.71439453 238.5625 145.5625 C237.60472656 144.95277344 236.64695312 144.34304688 235.66015625 143.71484375 C233.58598876 142.37775193 231.53633313 141.01828056 229.5 139.625 C227.02955197 137.8699161 227.02955197 137.8699161 224 137 C223.896875 136.360625 223.79375 135.72125 223.6875 135.0625 C223.460625 134.381875 223.23375 133.70125 223 133 C221.01276732 132.29618843 219.01222047 131.6288189 217 131 C216.67 130.01 216.34 129.02 216 128 C214.34561387 127.30341637 212.67745682 126.63903117 211 126 C210 125 209 124 208 123 C206.03533587 121.93224776 204.03144641 120.93446535 202 120 C201.21882813 119.64035156 200.43765625 119.28070312 199.6328125 118.91015625 C196.01981639 117.66115315 192.88514834 117.94626517 189.109375 118.125 C186.4517335 118.01816014 184.33414503 117.67391131 181.76953125 117.06640625 C176.84417614 115.90491071 171.97534769 115.35637722 166.9375 114.9375 C165.97739014 114.85588623 165.01728027 114.77427246 164.02807617 114.69018555 C154.96582188 113.97756767 145.89596211 113.61311559 136.8125 113.3125 C136.10415009 113.28767548 135.39580017 113.26285095 134.66598511 113.23727417 C132.63822104 113.16828938 130.61012304 113.10934487 128.58203125 113.05078125 C127.40874268 113.01637939 126.2354541 112.98197754 125.02661133 112.9465332 C122.15447556 112.88058531 122.15447556 112.88058531 120.05718994 113.49819946 C116.50549719 114.36454695 112.85033304 114.07906254 109.21484375 114.03515625 C97.6585918 113.96635366 86.11555218 114.18252134 74.5625 114.4375 C73.52138062 114.4602298 72.48026123 114.48295959 71.40759277 114.50637817 C65.20438094 114.64274711 59.00134486 114.78555887 52.79840088 114.93359375 C50.20987133 114.99501974 47.62130274 115.05437649 45.03271484 115.11328125 C40.93803527 115.20798991 36.84409583 115.32023582 32.75 115.4375 C31.58670166 115.46448975 30.42340332 115.49147949 29.22485352 115.51928711 C27.65175415 115.5696814 27.65175415 115.5696814 26.046875 115.62109375 C25.15838867 115.6461499 24.26990234 115.67120605 23.35449219 115.69702148 C20.8344459 116.02130367 19.23322544 116.83448769 17 118 C13.71484375 118.16015625 13.71484375 118.16015625 9.9375 118.0625 C4.21885835 117.95551147 -1.34206846 118.20015862 -7.0234375 118.87890625 C-8.00183594 118.93884766 -8.00183594 118.93884766 -9 119 C-10 118 -10 118 -10.125 115.5 C-10 113 -10 113 -9 112 C-7.35 112 -5.7 112 -4 112 C-4.495 93.685 -4.495 93.685 -5 75 C-8.3 75 -11.6 75 -15 75 C-15.66 70.05 -16.32 65.1 -17 60 C-19.31 59.34 -21.62 58.68 -24 58 C-23.40586515 54.5331925 -22.48514095 51.58533693 -21.0625 48.375 C-19.51464724 44.66568142 -18.63124088 41.28821748 -18.0625 37.3125 C-17.37488625 33.00743998 -16.2470011 30.62395991 -13.4296875 27.21484375 C-10.95852712 23.3865707 -9.63491348 19.05911716 -8.14355469 14.77270508 C-6.78445702 10.90689957 -5.41817115 7.35929722 -3 4 C-2.34 4 -1.68 4 -1 4 C-0.67 2.68 -0.34 1.36 0 0 Z " fill="#ECECEC" transform="translate(1326,1843)"/>
<path d="M0 0 C1.32 0 2.64 0 4 0 C4.15235274 33.34649838 3.74633392 66.66185195 3 100 C0.36 100 -2.28 100 -5 100 C-5.07662309 85.51823626 -4.87553679 71.04320868 -4.62768555 56.5637207 C-4.5618687 52.64995999 -4.50260495 48.73613066 -4.44335938 44.82226562 C-4.40144337 42.3229099 -4.35914004 39.82356063 -4.31640625 37.32421875 C-4.29969376 36.15968674 -4.28298126 34.99515472 -4.26576233 33.79533386 C-4.24581711 32.71262711 -4.22587189 31.62992035 -4.20532227 30.5144043 C-4.18977798 29.56720016 -4.1742337 28.61999603 -4.15821838 27.64408875 C-4.00066106 25.01104739 -3.53795443 22.57808275 -3 20 C-3.00534604 18.0620594 -3.04886166 16.12395173 -3.125 14.1875 C-3.1927384 8.70746369 -2.28562552 4.95218863 0 0 Z " fill="#E2E2E2" transform="translate(1570,2100)"/>
<path d="M0 0 C1 2 1 2 0.36328125 4.49609375 C-0.15685547 5.95208984 -0.15685547 5.95208984 -0.6875 7.4375 C-1.02136719 8.40558594 -1.35523438 9.37367187 -1.69921875 10.37109375 C-3.15890794 13.32115629 -4.12454462 14.4338588 -7 16 C-8.98 16.33 -10.96 16.66 -13 17 C-13.33 21.95 -13.66 26.9 -14 32 C-17.63 32.33 -21.26 32.66 -25 33 C-25 45.54 -25 58.08 -25 71 C-23.68 71 -22.36 71 -21 71 C-21 72.32 -21 73.64 -21 75 C-30.10242948 76.38892657 -38.962473 77.2327526 -48.17919922 77.01367188 C-52.64578859 76.92553621 -57.01424767 77.13134793 -61.46875 77.4921875 C-69.77917147 78.12934587 -78.0468729 78.11104716 -86.375 78.0625 C-87.90104017 78.05746731 -89.42708198 78.05290758 -90.953125 78.04882812 C-94.63545154 78.03798019 -98.31771469 78.02081654 -102 78 C-102 77.34 -102 76.68 -102 76 C-101.0397139 75.96574669 -101.0397139 75.96574669 -100.06002808 75.93080139 C-93.27662612 75.68862544 -86.4932797 75.44493423 -79.70996094 75.20043945 C-77.19272173 75.10989704 -74.67546949 75.0197159 -72.15820312 74.92993164 C-56.43449886 74.36881859 -40.71585506 73.75073166 -25 73 C-25.33 72.67 -25.66 72.34 -26 72 C-26.15814048 70.49418668 -26.25117943 68.98143887 -26.31640625 67.46875 C-26.35862305 66.5202417 -26.40083984 65.5717334 -26.44433594 64.59448242 C-26.48333008 63.57330322 -26.52232422 62.55212402 -26.5625 61.5 C-26.6229248 59.94986206 -26.6229248 59.94986206 -26.68457031 58.3684082 C-26.79935447 55.24584515 -26.90210396 52.12313469 -27 49 C-27.03013184 48.10200684 -27.06026367 47.20401367 -27.09130859 46.27880859 C-27.16330197 43.91494954 -27.21220565 41.55212318 -27.25 39.1875 C-27.2713501 38.48367188 -27.2927002 37.77984375 -27.31469727 37.0546875 C-27.328125 35.10546875 -27.328125 35.10546875 -27 32 C-23.91111478 29.94074319 -23.29064073 29.7609626 -19.8125 29.875 C-18.554375 29.91625 -17.29625 29.9575 -16 30 C-16.05800781 29.02417969 -16.11601563 28.04835938 -16.17578125 27.04296875 C-16.24345703 25.13451172 -16.24345703 25.13451172 -16.3125 23.1875 C-16.37050781 21.92292969 -16.42851563 20.65835937 -16.48828125 19.35546875 C-16 16 -16 16 -13.65625 14.0625 C-10.87365455 12.94946182 -8.96585163 12.74578415 -6 13 C-5.566875 11.96875 -5.13375 10.9375 -4.6875 9.875 C-3.25087475 6.51603334 -1.66578055 3.25223822 0 0 Z " fill="#B4B4B4" transform="translate(1294,1887)"/>
<path d="M0 0 C0.75 1.5625 0.75 1.5625 1 4 C-0.13084437 6.50286409 -1.52139516 8.67007722 -3 11 C-3.66 11 -4.32 11 -5 11 C-5.268125 12.155 -5.53625 13.31 -5.8125 14.5 C-6.88385122 18.81623514 -8.37472237 22.86292967 -10 27 C-10.66 27 -11.32 27 -12 27 C-13.66179337 31.77323627 -15.16877574 36.54384929 -16.4375 41.4375 C-17.86575559 46.81624976 -19.81523695 51.88743266 -22 57 C-19.69 57.33 -17.38 57.66 -15 58 C-13.86505751 63.39097682 -13.92588482 68.51547704 -14 74 C-10.7 74 -7.4 74 -4 74 C-2.74717275 77.75848174 -2.87618165 81.25490919 -2.90234375 85.16796875 C-2.9037587 85.96278152 -2.90517365 86.7575943 -2.90663147 87.57649231 C-2.91222622 90.11353325 -2.92477772 92.65048575 -2.9375 95.1875 C-2.94251568 96.90820185 -2.94707847 98.62890508 -2.95117188 100.34960938 C-2.96219393 104.5664403 -2.97945494 108.78320516 -3 113 C-5.475 113.495 -5.475 113.495 -8 114 C-8 114.66 -8 115.32 -8 116 C-6.98292969 115.89171875 -6.98292969 115.89171875 -5.9453125 115.78125 C2.42896911 114.94614158 10.69993753 114.25261843 19 116 C19 116.66 19 117.32 19 118 C17.90042969 117.98839844 16.80085938 117.97679687 15.66796875 117.96484375 C8.01879008 117.91028099 0.51451725 117.95078931 -7.09375 118.87890625 C-7.7228125 118.91886719 -8.351875 118.95882813 -9 119 C-10 118 -10 118 -10.125 115.5 C-10 113 -10 113 -9 112 C-7.35 112 -5.7 112 -4 112 C-4.495 93.685 -4.495 93.685 -5 75 C-8.3 75 -11.6 75 -15 75 C-15.66 70.05 -16.32 65.1 -17 60 C-19.31 59.34 -21.62 58.68 -24 58 C-23.40586515 54.5331925 -22.48514095 51.58533693 -21.0625 48.375 C-19.51464724 44.66568142 -18.63124088 41.28821748 -18.0625 37.3125 C-17.37488625 33.00743998 -16.2470011 30.62395991 -13.4296875 27.21484375 C-10.95852712 23.3865707 -9.63491348 19.05911716 -8.14355469 14.77270508 C-6.78445702 10.90689957 -5.41817115 7.35929722 -3 4 C-2.34 4 -1.68 4 -1 4 C-0.67 2.68 -0.34 1.36 0 0 Z " fill="#767676" transform="translate(1326,1843)"/>
<path d="M0 0 C0.763125 0.20625 1.52625 0.4125 2.3125 0.625 C3.31291745 3.62625236 3.43918284 5.61643772 3.44189453 8.75146484 C3.44504669 9.79619965 3.44819885 10.84093445 3.45144653 11.91732788 C3.4494223 13.04546906 3.44739807 14.17361023 3.4453125 15.3359375 C3.44626923 16.49622467 3.44722595 17.65651184 3.44821167 18.85195923 C3.44889266 21.30820774 3.44704401 23.76445806 3.44287109 26.22070312 C3.4375314 29.97790587 3.44281387 33.73498854 3.44921875 37.4921875 C3.44855776 39.87760443 3.44727618 42.26302129 3.4453125 44.6484375 C3.44733673 45.77253021 3.44936096 46.89662292 3.45144653 48.05477905 C3.44829437 49.10581818 3.44514221 50.1568573 3.44189453 51.23974609 C3.44070114 52.62182755 3.44070114 52.62182755 3.43948364 54.03182983 C3.31090524 56.65756713 2.84080152 59.05405535 2.3125 61.625 C2.2324332 63.03640468 2.19448678 64.45083519 2.19897461 65.86450195 C2.19905014 66.66495438 2.19912567 67.4654068 2.19920349 68.29011536 C2.20436478 69.1392601 2.20952606 69.98840485 2.21484375 70.86328125 C2.21696617 72.18443184 2.21696617 72.18443184 2.21913147 73.53227234 C2.22471063 76.33405003 2.23725929 79.13574662 2.25 81.9375 C2.25501769 83.84179572 2.25958013 85.74609269 2.26367188 87.65039062 C2.27467323 92.30862481 2.29192351 96.96679867 2.3125 101.625 C1.3225 102.12 1.3225 102.12 0.3125 102.625 C0.18016722 69.27563834 0.43141149 35.96342073 1.3125 2.625 C-0.0075 2.955 -1.3275 3.285 -2.6875 3.625 C-3.3475 5.935 -4.0075 8.245 -4.6875 10.625 C-5.3475 10.625 -6.0075 10.625 -6.6875 10.625 C-6.60041331 9.16554712 -6.49223093 7.70734132 -6.375 6.25 C-6.31699219 5.43789062 -6.25898437 4.62578125 -6.19921875 3.7890625 C-5.34703426 0.18516778 -3.49288699 -0.48737958 0 0 Z " fill="#525252" transform="translate(1572.6875,2097.375)"/>
<path d="M0 0 C0.74209717 0.00016113 1.48419434 0.00032227 2.2487793 0.00048828 C8.09575191 0.12223346 12.53473948 1.3204404 17.5625 4.375 C18.26761719 4.69855469 18.97273438 5.02210937 19.69921875 5.35546875 C22.30578522 6.78170323 23.07925376 8.84112101 24.5625 11.375 C25.5834375 12.0246875 25.5834375 12.0246875 26.625 12.6875 C30.14578379 15.75398911 30.28062252 20.21769771 30.85546875 24.6171875 C31.20536381 30.08311567 29.86887467 33.41543799 26.8515625 37.94140625 C26.42617187 38.41449219 26.00078125 38.88757812 25.5625 39.375 C24.9025 39.375 24.2425 39.375 23.5625 39.375 C23.5625 40.035 23.5625 40.695 23.5625 41.375 C22.5725 40.88 22.5725 40.88 21.5625 40.375 C24.0375 35.425 24.0375 35.425 26.5625 30.375 C27.2225 30.375 27.8825 30.375 28.5625 30.375 C28.36016165 28.14323823 28.12447726 25.91448507 27.875 23.6875 C27.74738281 22.44613281 27.61976562 21.20476562 27.48828125 19.92578125 C26.38822502 15.70657823 24.82795779 14.17962687 21.5625 11.375 C20.7375 10.488125 19.9125 9.60125 19.0625 8.6875 C14.59625244 4.556221 10.69861437 4.12710472 4.73046875 4.1796875 C2.79204102 4.18935547 2.79204102 4.18935547 0.81445312 4.19921875 C-0.5403673 4.21592673 -1.89518501 4.23285658 -3.25 4.25 C-4.62434251 4.26003997 -5.99869203 4.26916404 -7.37304688 4.27734375 C-10.72804317 4.30088758 -14.08268199 4.33377433 -17.4375 4.375 C-17.55609375 5.01308594 -17.6746875 5.65117188 -17.796875 6.30859375 C-18.11398437 7.33146484 -18.11398437 7.33146484 -18.4375 8.375 C-20.6875 9.4375 -20.6875 9.4375 -23.4375 10.375 C-24.324375 10.91125 -25.21125 11.4475 -26.125 12 C-28.4375 13.375 -28.4375 13.375 -30.4375 13.375 C-29.6875 11.4375 -29.6875 11.4375 -28.4375 9.375 C-26.3125 8.625 -26.3125 8.625 -24.4375 8.375 C-24.4375 7.715 -24.4375 7.055 -24.4375 6.375 C-23.2825 5.75625 -22.1275 5.1375 -20.9375 4.5 C-20.2878125 4.15195313 -19.638125 3.80390625 -18.96875 3.4453125 C-12.7367389 0.810172 -6.69614279 -0.01371692 0 0 Z " fill="#919191" transform="translate(1389.4375,1771.625)"/>
<path d="M0 0 C0 0.66 0 1.32 0 2 C-0.76666992 2.05534912 -1.53333984 2.11069824 -2.32324219 2.16772461 C-5.79910225 2.4207011 -9.27454354 2.67904042 -12.75 2.9375 C-13.9565625 3.02451172 -15.163125 3.11152344 -16.40625 3.20117188 C-18.14648438 3.33168945 -18.14648438 3.33168945 -19.921875 3.46484375 C-20.99018555 3.543396 -22.05849609 3.62194824 -23.15917969 3.70288086 C-25.55495251 3.95345284 -27.67917417 4.40060998 -30 5 C-32.47772956 5.09412604 -34.95798809 5.12991479 -37.4375 5.125 C-38.73558594 5.12757812 -40.03367187 5.13015625 -41.37109375 5.1328125 C-45 5 -45 5 -47.375 4.5 C-51.42358717 3.72884054 -55.45138682 3.8562135 -59.5625 3.875 C-60.41263672 3.87113281 -61.26277344 3.86726563 -62.13867188 3.86328125 C-62.96044922 3.86457031 -63.78222656 3.86585937 -64.62890625 3.8671875 C-65.7437439 3.86887939 -65.7437439 3.86887939 -66.88110352 3.87060547 C-69.03677124 4.00224551 -70.91790732 4.44699922 -73 5 C-74.58211573 5.06548492 -76.16670081 5.08578381 -77.75 5.0625 C-78.54921875 5.05347656 -79.3484375 5.04445313 -80.171875 5.03515625 C-80.77515625 5.02355469 -81.3784375 5.01195312 -82 5 C-81.67 4.01 -81.34 3.02 -81 2 C-62.8161429 1.2734867 -44.63173224 0.8093061 -26.4375 0.4375 C-24.81811523 0.40428146 -24.81811523 0.40428146 -23.16601562 0.37039185 C-20.06772479 0.30726652 -16.9694171 0.24510137 -13.87109375 0.18359375 C-12.46500099 0.15554153 -12.46500099 0.15554153 -11.03050232 0.12692261 C-10.16248489 0.1100943 -9.29446747 0.09326599 -8.40014648 0.07592773 C-7.2656028 0.0538047 -7.2656028 0.0538047 -6.10813904 0.03123474 C-4.07228952 0.00107106 -2.03607297 0 0 0 Z " fill="#323232" transform="translate(1428,1956)"/>
<path d="M0 0 C1.08190305 3.24570914 0.94437884 4.03347924 0.07421875 7.203125 C-0.14556641 8.01910156 -0.36535156 8.83507813 -0.59179688 9.67578125 C-0.94854492 10.95001953 -0.94854492 10.95001953 -1.3125 12.25 C-1.53873047 13.08402344 -1.76496094 13.91804688 -1.99804688 14.77734375 C-3.29239884 19.52951783 -4.63764317 24.26692931 -6 29 C-5.34 28.67 -4.68 28.34 -4 28 C-0.47185994 27.63395438 3.08126841 27.5675894 6.625 27.4375 C7.73480225 27.3957666 8.84460449 27.3540332 9.98803711 27.31103516 C21.17813153 26.94335955 32.36725012 26.89010207 43.5625 26.875 C44.92233002 26.87111771 44.92233002 26.87111771 46.30963135 26.86715698 C48.89526362 26.86132993 51.48077318 26.86286916 54.06640625 26.8671875 C54.8537767 26.86520859 55.64114716 26.86322968 56.45237732 26.8611908 C61.88470704 26.88470704 61.88470704 26.88470704 63 28 C65.32817964 28.36760731 67.6618385 28.70241581 70 29 C70 29.33 70 29.66 70 30 C68.69256836 29.99476318 67.38513672 29.98952637 66.03808594 29.98413086 C59.94206798 29.96180061 53.84604939 29.94783797 47.75 29.9375 C46.11197418 29.9345845 46.11197418 29.9345845 44.44085693 29.93161011 C30.1753711 29.91384634 15.94852068 30.02656762 1.69824219 30.73217773 C0.68665039 30.78059814 -0.32494141 30.82901855 -1.3671875 30.87890625 C-2.22425293 30.9260376 -3.08131836 30.97316895 -3.96435547 31.02172852 C-6 31 -6 31 -8 30 C-8.28091697 25.05737979 -7.32537893 21.34023574 -5.6875 16.6875 C-5.4603833 16.03322021 -5.2332666 15.37894043 -4.99926758 14.70483398 C-4.33843599 12.80127252 -3.66938352 10.90057105 -3 9 C-2.3915569 7.18893109 -1.78648071 5.37672042 -1.1875 3.5625 C-0.795625 2.386875 -0.40375 1.21125 0 0 Z " fill="#2A2A2A" transform="translate(1416,1919)"/>
<path d="M0 0 C1.3805087 3.76668598 0.59568159 6.44789173 -0.4375 10.25 C-0.72496094 11.32765625 -1.01242187 12.4053125 -1.30859375 13.515625 C-1.65083984 14.74539063 -1.65083984 14.74539063 -2 16 C-2.66 16 -3.32 16 -4 16 C-4.06058594 16.89460938 -4.12117188 17.78921875 -4.18359375 18.7109375 C-4.30927734 20.52464844 -4.30927734 20.52464844 -4.4375 22.375 C-4.51871094 23.55835938 -4.59992188 24.74171875 -4.68359375 25.9609375 C-4.89617534 28.90312575 -5.2007069 31.82624676 -5.52734375 34.7578125 C-6.09659431 40.34381661 -6.14768535 45.88915678 -6.125 51.5 C-6.12886719 52.48742188 -6.13273437 53.47484375 -6.13671875 54.4921875 C-6.13542969 55.43320313 -6.13414063 56.37421875 -6.1328125 57.34375 C-6.13168457 58.19130859 -6.13055664 59.03886719 -6.12939453 59.91210938 C-6.1328687 62.06012288 -6.1328687 62.06012288 -5 64 C-4.93001104 66.79518407 -5.00294839 69.57589002 -5.0625 72.37109375 C-5.12606814 75.11111337 -5.12606814 75.11111337 -4 78 C-3.39703714 85.5370358 -4.09913643 92.83149595 -5.375 100.25 C-5.56400879 101.37656006 -5.56400879 101.37656006 -5.75683594 102.52587891 C-6.09754049 104.36576846 -6.54022229 106.18619802 -7 108 C-7.99 108.495 -7.99 108.495 -9 109 C-8.85711146 107.29141784 -8.71053911 105.5831436 -8.5625 103.875 C-8.48128906 102.92367188 -8.40007812 101.97234375 -8.31640625 100.9921875 C-8 98 -8 98 -7.47265625 95.078125 C-6.94386475 91.63442501 -6.86760376 88.35862848 -6.875 84.875 C-6.87242188 83.67617187 -6.86984375 82.47734375 -6.8671875 81.2421875 C-6.92312693 78.01725994 -7.18873651 74.84304957 -7.49609375 71.6328125 C-8.14548246 64.21372103 -8.18607219 56.81524301 -8.18530273 49.37304688 C-8.18749655 47.00372526 -8.20574756 44.63486529 -8.22460938 42.265625 C-8.26657329 31.14997874 -7.40925163 20.65391134 -4 10 C-3.67 8.948125 -3.34 7.89625 -3 6.8125 C-2.14819833 4.41680782 -1.20329881 2.2346978 0 0 Z " fill="#686868" transform="translate(1432,1781)"/>
<path d="M0 0 C0.495 0.99 0.495 0.99 1 2 C0.14277344 1.79503906 -0.71445313 1.59007812 -1.59765625 1.37890625 C-13.51990487 -1.67902145 -13.51990487 -1.67902145 -25.53515625 -0.6015625 C-28.2387215 0.05826167 -30.94004666 0.49760923 -33.6875 0.9375 C-37.95673389 1.69437249 -41.15745273 2.95609188 -45 5 C-48.30557619 6.10012078 -51.65078974 7.04308278 -55 8 C-55.99 8.33 -56.98 8.66 -58 9 C-58 9.66 -58 10.32 -58 11 C-58.969375 11.268125 -59.93875 11.53625 -60.9375 11.8125 C-61.948125 12.204375 -62.95875 12.59625 -64 13 C-64.33 13.99 -64.66 14.98 -65 16 C-66.65744104 17.01521769 -68.32545124 18.01325574 -70 19 C-72.13303997 21.0663397 -72.13303997 21.0663397 -74.0625 23.375 C-74.74828125 24.17292969 -75.4340625 24.97085937 -76.140625 25.79296875 C-77.06101562 26.88544922 -77.06101562 26.88544922 -78 28 C-78.763125 28.886875 -79.52625 29.77375 -80.3125 30.6875 C-82.23561534 33.32288028 -83.62612858 36.04617644 -85 39 C-86 36 -86 36 -85.109375 33.84375 C-84.43648437 32.68359375 -84.43648437 32.68359375 -83.75 31.5 C-83.31171875 30.7265625 -82.8734375 29.953125 -82.421875 29.15625 C-81.09176079 27.13915373 -79.76286177 25.63660907 -78 24 C-77.236875 23.21625 -76.47375 22.4325 -75.6875 21.625 C-73.76309584 19.74534942 -71.89154161 18.05851662 -69.8125 16.375 C-66.88119654 14.12277665 -66.88119654 14.12277665 -65 11 C-62.375 10.3125 -62.375 10.3125 -60 10 C-59.67 9.01 -59.34 8.02 -59 7 C-57.1796875 5.90234375 -57.1796875 5.90234375 -54.875 4.9375 C-54.12992188 4.61652344 -53.38484375 4.29554687 -52.6171875 3.96484375 C-49.45487859 2.79903733 -46.24167639 1.92175463 -43 1 C-41.13557697 0.34893164 -39.27116775 -0.30217866 -37.4074707 -0.95532227 C-24.56701976 -5.32034357 -12.67374444 -5.53844653 0 0 Z " fill="#656565" transform="translate(1598,1528)"/>
<path d="M0 0 C-0.33 0.99 -0.66 1.98 -1 3 C-3.99257252 4.17306496 -6.91526566 4.10437739 -10.09765625 4.0625 C-11.06380859 4.05476563 -12.02996094 4.04703125 -13.02539062 4.0390625 C-14.02763672 4.02617188 -15.02988281 4.01328125 -16.0625 4 C-18.05333102 3.97449288 -20.0442258 3.95345936 -22.03515625 3.9375 C-22.9156665 3.92589844 -23.79617676 3.91429687 -24.70336914 3.90234375 C-27.16311309 3.90123813 -27.16311309 3.90123813 -30 5 C-32.96404083 5.07359505 -35.90397832 5.09164226 -38.8671875 5.0625 C-39.73892609 5.05871338 -40.61066467 5.05492676 -41.50881958 5.05102539 C-45.23852254 5.03467857 -48.96811603 5.00658867 -52.69775391 4.97949219 C-55.42089327 4.96138557 -58.14401469 4.9493029 -60.8671875 4.9375 C-61.70692108 4.92920166 -62.54665466 4.92090332 -63.41183472 4.91235352 C-67.44177095 4.89551956 -71.05256499 5.10682281 -75 6 C-76.54665547 6.07595256 -78.09604781 6.10819015 -79.64453125 6.09765625 C-80.90620117 6.09282227 -80.90620117 6.09282227 -82.19335938 6.08789062 C-83.05767578 6.07951172 -83.92199219 6.07113281 -84.8125 6.0625 C-85.69615234 6.05798828 -86.57980469 6.05347656 -87.49023438 6.04882812 C-89.66018559 6.03709866 -91.83010172 6.01916495 -94 6 C-94 5.34 -94 4.68 -94 4 C-82.18691957 3.47769164 -70.37380821 2.95608923 -58.56065655 2.43539429 C-53.07565985 2.19360664 -47.5906742 1.95157354 -42.10571289 1.70898438 C-36.81489861 1.47499093 -31.52405653 1.24163584 -26.23319435 1.00872803 C-24.21212569 0.91964573 -22.19106725 0.83033131 -20.17001915 0.74078369 C-17.34473653 0.61564171 -14.51941908 0.49131644 -11.6940918 0.3671875 C-10.43389473 0.31108307 -10.43389473 0.31108307 -9.14823914 0.25384521 C-6.09612485 0.12040505 -3.05545449 0 0 0 Z " fill="#2C2C2C" transform="translate(1218,1964)"/>
<path d="M0 0 C1.17784561 -0.00315216 2.35569122 -0.00630432 3.56922913 -0.009552 C5.48486916 -0.00651566 5.48486916 -0.00651566 7.43920898 -0.00341797 C8.74357407 -0.00437469 10.04793915 -0.00533142 11.39183044 -0.00631714 C14.15332217 -0.00779223 16.91478156 -0.00564525 19.67626953 -0.00097656 C23.22299294 0.00472622 26.76964078 0.00143709 30.31636143 -0.00454903 C33.69065009 -0.00902195 37.06491818 -0.00589476 40.43920898 -0.00341797 C42.35788536 -0.00645432 42.35788536 -0.00645432 44.31532288 -0.009552 C46.07736305 -0.00482376 46.07736305 -0.00482376 47.875 0 C49.43481346 0.00119339 49.43481346 0.00119339 51.02613831 0.00241089 C53.37280273 0.12939453 53.37280273 0.12939453 54.37280273 1.12939453 C55.72027358 1.36014535 57.07657838 1.54092516 58.43530273 1.69189453 C59.73467773 1.83626953 61.03405273 1.98064453 62.37280273 2.12939453 C62.37280273 2.45939453 62.37280273 2.78939453 62.37280273 3.12939453 C50.44111561 3.25738641 38.57055762 3.01320242 26.65234375 2.3972168 C25.63325928 2.34879639 24.6141748 2.30037598 23.56420898 2.25048828 C22.65872314 2.20335693 21.7532373 2.15622559 20.8203125 2.10766602 C18.44367411 2.02843482 18.44367411 2.02843482 16.49491882 2.62365723 C14.24053109 3.16091717 12.28653268 3.24972903 9.97143555 3.24291992 C8.68055023 3.24280663 8.68055023 3.24280663 7.36358643 3.24269104 C6.44365906 3.23752975 5.52373169 3.23236847 4.57592773 3.22705078 C3.15277252 3.22492836 3.15277252 3.22492836 1.7008667 3.22276306 C-1.32518688 3.21717195 -4.3511661 3.20462105 -7.37719727 3.19189453 C-9.43058161 3.18687838 -11.48396712 3.18231568 -13.53735352 3.17822266 C-18.56733003 3.16720542 -23.59725104 3.14994686 -28.62719727 3.12939453 C-28.62719727 2.79939453 -28.62719727 2.46939453 -28.62719727 2.12939453 C-28.00151855 2.10433838 -27.37583984 2.07928223 -26.73120117 2.0534668 C-23.90465107 1.9376418 -21.07844558 1.81485469 -18.25219727 1.69189453 C-16.77493164 1.63291992 -16.77493164 1.63291992 -15.26782227 1.57275391 C-13.85629883 1.50991211 -13.85629883 1.50991211 -12.41625977 1.44580078 C-11.54694824 1.40914307 -10.67763672 1.37248535 -9.78198242 1.3347168 C-6.308217 1.00371332 -3.67868131 0.00281235 0 0 Z " fill="#8F8F8F" transform="translate(1429.627197265625,1953.87060546875)"/>
<path d="M0 0 C2.36633008 2.36633008 2.26107236 2.86636156 2.31884766 6.08251953 C2.33871735 6.92324005 2.35858704 7.76396057 2.37905884 8.63015747 C2.39061005 9.53853363 2.40216125 10.44690979 2.4140625 11.3828125 C2.43342865 12.31221649 2.4527948 13.24162048 2.4727478 14.19918823 C2.53263685 17.1743648 2.5789661 20.14957988 2.625 23.125 C2.66317121 25.13934 2.70222243 27.15366354 2.7421875 29.16796875 C2.838346 34.11184575 2.9223424 39.05579917 3 44 C3.804375 43.979375 4.60875 43.95875 5.4375 43.9375 C8 44 8 44 9 45 C10.53382679 45.1225355 12.07310519 45.17777938 13.61157227 45.20532227 C14.59251358 45.22526749 15.5734549 45.24521271 16.5841217 45.26576233 C18.18410255 45.29083107 18.18410255 45.29083107 19.81640625 45.31640625 C21.44569313 45.3475779 21.44569313 45.3475779 23.1078949 45.37937927 C26.59269627 45.44499442 30.07757568 45.50381511 33.5625 45.5625 C35.91862801 45.60567385 38.27474799 45.64928776 40.63085938 45.69335938 C46.42048937 45.80068792 52.21019775 45.90243165 58 46 C57.505 46.99 57.505 46.99 57 48 C38.85 47.67 20.7 47.34 2 47 C-0.25 39.125 -0.25 39.125 -0.22705078 35.53344727 C-0.22689972 34.7331459 -0.22674866 33.93284454 -0.22659302 33.10829163 C-0.21627045 32.26946945 -0.20594788 31.43064728 -0.1953125 30.56640625 C-0.1924826 29.68846909 -0.18965271 28.81053192 -0.18673706 27.9059906 C-0.17561598 25.12468355 -0.15052672 22.34370836 -0.125 19.5625 C-0.11495975 17.66732239 -0.10583573 15.77213968 -0.09765625 13.87695312 C-0.07570315 9.25117583 -0.0412296 4.62564402 0 0 Z " fill="#848484" transform="translate(1112,2049)"/>
<path d="M0 0 C0 0.33 0 0.66 0 1 C-0.82526184 1.03536362 -1.65052368 1.07072723 -2.50079346 1.10716248 C-10.32615114 1.44292021 -18.15140391 1.78101156 -25.97655106 2.12164211 C-29.99831164 2.29663008 -34.0201055 2.47075525 -38.04199219 2.64282227 C-41.93245377 2.80929982 -45.82280582 2.97815649 -49.71309662 3.14857674 C-51.18800028 3.21278494 -52.66293984 3.27617471 -54.13791656 3.33868217 C-62.77745064 3.70542834 -71.38853258 4.19668386 -80 5 C-79.97679687 5.91523437 -79.95359375 6.83046875 -79.9296875 7.7734375 C-79.91164063 8.96195313 -79.89359375 10.15046875 -79.875 11.375 C-79.85179687 12.55835938 -79.82859375 13.74171875 -79.8046875 14.9609375 C-80 18 -80 18 -82 20 C-82.67774969 14.66272119 -83.32988944 9.38819418 -83 4 C-80.51271466 1.51271466 -79.46454642 1.64901581 -76.01831055 1.39477539 C-75.0275351 1.32138947 -74.03675964 1.24800354 -73.01596069 1.1723938 C-68.57961694 0.9188102 -64.14958847 0.76862808 -59.70703125 0.68359375 C-58.76511429 0.66276733 -57.82319733 0.64194092 -56.85273743 0.6204834 C-53.83939555 0.55532033 -50.82597643 0.49608086 -47.8125 0.4375 C-45.74267505 0.39464779 -43.67285084 0.35176031 -41.60302734 0.30883789 C-27.73394644 0.03016662 -13.87201874 -0.13424534 0 0 Z " fill="#959595" transform="translate(1192,1965)"/>
<path d="M0 0 C0.66 0 1.32 0 2 0 C2.76033472 3.35744175 3.10903999 6.40121017 3.03759766 9.84008789 C3.02072906 10.776194 3.00386047 11.71230011 2.98648071 12.67677307 C2.9625827 13.68191452 2.93868469 14.68705597 2.9140625 15.72265625 C2.89282318 16.77795029 2.87158386 17.83324432 2.84970093 18.92051697 C2.80345526 21.16068982 2.75452832 23.4008087 2.703125 25.64086914 C2.62647021 28.99810942 2.5585688 32.35543329 2.4921875 35.71289062 C2.21924114 48.82341423 1.74390945 61.9077475 1 75 C0.34 75 -0.32 75 -1 75 C-1.09638347 59.12082364 -0.79509899 43.25092944 -0.5 27.375 C-0.4514917 24.7109434 -0.40349642 22.04687785 -0.35546875 19.3828125 C-0.23867488 12.92184321 -0.12007008 6.46090919 0 0 Z " fill="#878787" transform="translate(1566,2125)"/>
<path d="M0 0 C1 2 1 2 0.36328125 4.49609375 C0.01652344 5.46675781 -0.33023437 6.43742187 -0.6875 7.4375 C-1.02136719 8.40558594 -1.35523438 9.37367187 -1.69921875 10.37109375 C-3.15890794 13.32115629 -4.12454462 14.4338588 -7 16 C-8.98 16.33 -10.96 16.66 -13 17 C-13.33 21.95 -13.66 26.9 -14 32 C-19.445 32.495 -19.445 32.495 -25 33 C-25 45.21 -25 57.42 -25 70 C-25.33 70 -25.66 70 -26 70 C-26.56594016 59.77845849 -27.09745663 49.54973043 -27.25 39.3125 C-27.2819043 38.2452771 -27.2819043 38.2452771 -27.31445312 37.15649414 C-27.328125 35.17578125 -27.328125 35.17578125 -27 32 C-23.91111478 29.94074319 -23.29064073 29.7609626 -19.8125 29.875 C-18.554375 29.91625 -17.29625 29.9575 -16 30 C-16.05800781 29.02417969 -16.11601563 28.04835938 -16.17578125 27.04296875 C-16.22089844 25.77066406 -16.26601562 24.49835938 -16.3125 23.1875 C-16.39951172 21.29064453 -16.39951172 21.29064453 -16.48828125 19.35546875 C-16 16 -16 16 -13.65625 14.0625 C-10.87365455 12.94946182 -8.96585163 12.74578415 -6 13 C-5.566875 11.96875 -5.13375 10.9375 -4.6875 9.875 C-3.25087475 6.51603334 -1.66578055 3.25223822 0 0 Z " fill="#979797" transform="translate(1294,1887)"/>
<path d="M0 0 C0.66 1.32 1.32 2.64 2 4 C2.66 4 3.32 4 4 4 C13.09603306 14.03350721 13.4626723 26.89661792 13.25 39.75 C13.24484375 41.01199219 13.2396875 42.27398438 13.234375 43.57421875 C13.1821284 49.79809516 12.95835798 55.84796005 12 62 C11.67 62 11.34 62 11 62 C10.98541748 61.01829834 10.97083496 60.03659668 10.95581055 59.02514648 C10.89687912 55.30655364 10.81967431 51.58850809 10.73754883 47.87036133 C10.7047373 46.27540106 10.67657673 44.68033683 10.65356445 43.08520508 C10.97084637 23.93513902 10.97084637 23.93513902 3.3125 7.3125 C2.68988281 6.75175781 2.06726562 6.19101563 1.42578125 5.61328125 C0 4 0 4 0 0 Z " fill="#515151" transform="translate(1638,1554)"/>
<path d="M0 0 C0.66 0.33 1.32 0.66 2 1 C-5.621381 8.36733497 -15.16137845 8.33024128 -25.16796875 8.30078125 C-31.18226537 7.82871108 -35.98290752 6.34472832 -41 3 C-40.34 2.67 -39.68 2.34 -39 2 C-38.18015625 2.30421875 -37.3603125 2.6084375 -36.515625 2.921875 C-31.8595561 4.34973613 -27.58980262 4.29130699 -22.75 4.25 C-21.85925781 4.25773437 -20.96851563 4.26546875 -20.05078125 4.2734375 C-9.21337337 4.5027497 -9.21337337 4.5027497 0 0 Z " fill="#646464" transform="translate(1409,1813)"/>
<path d="M0 0 C0.66 0 1.32 0 2 0 C2.4517737 4.08024864 2.85529131 8.16386794 3.25 12.25 C3.37890625 13.40886719 3.5078125 14.56773438 3.640625 15.76171875 C3.74375 16.87675781 3.846875 17.99179688 3.953125 19.140625 C4.05786133 20.16704102 4.16259766 21.19345703 4.27050781 22.25097656 C4 25 4 25 2.19042969 27.36621094 C0 29 0 29 -3 29 C-3 29.66 -3 30.32 -3 31 C-3.66 31 -4.32 31 -5 31 C-5.433125 31.928125 -5.433125 31.928125 -5.875 32.875 C-7 35 -7 35 -9 37 C-11.65537372 37.56520003 -14.29144713 37.73788198 -17 38 C-14.3226719 35.79514157 -11.65602717 33.77509468 -8.75 31.875 C-5.94016618 30.28622262 -5.94016618 30.28622262 -5 28 C-4.34 28 -3.68 28 -3 28 C-2.67 27.01 -2.34 26.02 -2 25 C-1.34 25 -0.68 25 0 25 C0 16.75 0 8.5 0 0 Z " fill="#454545" transform="translate(1527,1704)"/>
<path d="M0 0 C4.69957367 0.38363867 7.80641217 1.19580395 11.88671875 3.7109375 C20.09565273 8.71823549 28.79464229 12.96917088 37.44311523 17.15917969 C41.53152703 19.1658511 45.26249508 21.39472222 49 24 C48.67 24.66 48.34 25.32 48 26 C45.24858578 24.56515616 42.49859767 23.1277256 39.75 21.6875 C38.90332764 21.24398193 38.05665527 20.80046387 37.18432617 20.34350586 C32.61771658 17.94040257 28.07521385 15.50224534 23.56640625 12.9921875 C22.68694336 12.50274658 21.80748047 12.01330566 20.90136719 11.5090332 C19.21567908 10.56715259 17.53258689 9.620606 15.85253906 8.66870117 C12.12447872 6.58562243 8.50948132 4.74055443 4.48046875 3.30859375 C1 2 1 2 0 0 Z " fill="#A3A3A3" transform="translate(1651,1745)"/>
<path d="M0 0 C1.67955545 2.93879309 2.2469052 5.02611548 2.22705078 8.40136719 C2.22689972 9.2619574 2.22674866 10.12254761 2.22659302 11.00921631 C2.21627045 11.92914368 2.20594788 12.84907104 2.1953125 13.796875 C2.1924826 14.74564514 2.18965271 15.69441528 2.18673706 16.67193604 C2.17555448 19.69808639 2.1504533 22.7239393 2.125 25.75 C2.11496772 27.80338114 2.1058423 29.85676692 2.09765625 31.91015625 C2.07562141 36.94021854 2.04110462 41.97005886 2 47 C1.34 47 0.68 47 0 47 C-0.16773003 40.94954802 -0.32827792 34.89896413 -0.48217773 28.84814453 C-0.5355416 26.78982416 -0.5908665 24.73155365 -0.64819336 22.67333984 C-0.73026087 19.7146276 -0.80527057 16.75580762 -0.87890625 13.796875 C-0.90594131 12.87694763 -0.93297638 11.95702026 -0.96083069 11.00921631 C-0.99097511 9.71833099 -0.99097511 9.71833099 -1.02172852 8.40136719 C-1.04171402 7.64635925 -1.06169952 6.89135132 -1.08229065 6.11346436 C-0.99787906 3.94552797 -0.60109206 2.07931242 0 0 Z " fill="#B7B7B7" transform="translate(1110,2002)"/>
<path d="M0 0 C0.33 0 0.66 0 1 0 C1.01417969 1.26457031 1.02835938 2.52914063 1.04296875 3.83203125 C1.08986685 5.49222412 1.13811426 7.15237927 1.1875 8.8125 C1.19330078 9.64587891 1.19910156 10.47925781 1.20507812 11.33789062 C1.28914276 13.66367886 1.40916532 15.74751421 2 18 C4.40348295 19.96875312 4.40348295 19.96875312 7 21 C7.375 23.625 7.375 23.625 7 26 C4.69321156 28.30678844 -0.70483525 27.4832729 -3.8125 27.625 C-4.76342529 27.67003662 -5.71435059 27.71507324 -6.6940918 27.76147461 C-13.55880424 28.04251356 -20.17965652 27.91785161 -27 27 C-27 26.67 -27 26.34 -27 26 C-25.89140625 26.01160156 -24.7828125 26.02320313 -23.640625 26.03515625 C-22.17708502 26.04453792 -20.71354322 26.05363771 -19.25 26.0625 C-18.52039062 26.07087891 -17.79078125 26.07925781 -17.0390625 26.08789062 C-13.49818092 26.10398554 -10.41006339 25.88268577 -7 25 C-5.08438746 24.93311409 -3.16664408 24.91468281 -1.25 24.9375 C-0.26515625 24.94652344 0.7196875 24.95554687 1.734375 24.96484375 C2.85585937 24.98224609 2.85585937 24.98224609 4 25 C4 23.68 4 22.36 4 21 C2.68 21 1.36 21 0 21 C0 14.07 0 7.14 0 0 Z " fill="#3E3E3E" transform="translate(1269,1937)"/>
<path d="M0 0 C0.33 0 0.66 0 1 0 C1 3.3 1 6.6 1 10 C4.3 10 7.6 10 11 10 C12.21077701 13.63233102 12.12444164 16.95121987 12.09765625 20.73046875 C12.0962413 21.48088943 12.09482635 22.23131012 12.09336853 23.00447083 C12.0877756 25.3988546 12.07522444 27.79314453 12.0625 30.1875 C12.05748408 31.81184761 12.05292134 33.43619668 12.04882812 35.06054688 C12.03780848 39.04040069 12.02054873 43.02018444 12 47 C9.525 47.495 9.525 47.495 7 48 C6.505 50.475 6.505 50.475 6 53 C5.34 52.34 4.68 51.68 4 51 C4.375 48.375 4.375 48.375 5 46 C6.65 46 8.3 46 10 46 C10.02465392 41.46102295 10.04283789 36.92208457 10.05493164 32.38305664 C10.0599714 30.83780234 10.0668032 29.29255284 10.07543945 27.74731445 C10.08752076 25.53074971 10.09323173 23.31424782 10.09765625 21.09765625 C10.10539818 20.05545677 10.10539818 20.05545677 10.11329651 18.99220276 C10.11349277 17.3277067 10.06189129 15.66334501 10 14 C9.01732141 12.79438816 9.01732141 12.79438816 7.15234375 12.90234375 C5.1015625 12.93489583 3.05078125 12.96744792 1 13 C-0.9078584 9.8250906 -1.1609041 7.89414789 -0.625 4.25 C-0.51414062 3.45078125 -0.40328125 2.6515625 -0.2890625 1.828125 C-0.19367188 1.22484375 -0.09828125 0.6215625 0 0 Z " fill="#2C2C2C" transform="translate(1310,1908)"/>
<path d="M0 0 C0.99 0.33 1.98 0.66 3 1 C3 15.85 3 30.7 3 46 C0.59766142 43.59766142 0.73742532 43.01647698 0.68115234 39.73388672 C0.66128265 38.85312469 0.64141296 37.97236267 0.62094116 37.06491089 C0.60938995 36.11278717 0.59783875 35.16066345 0.5859375 34.1796875 C0.56657135 33.20589142 0.5472052 32.23209534 0.5272522 31.22879028 C0.46735442 28.11094997 0.42103029 24.99307294 0.375 21.875 C0.33682961 19.76430659 0.29777844 17.65362892 0.2578125 15.54296875 C0.16164473 10.36211856 0.07662736 5.18117403 0 0 Z " fill="#343434" transform="translate(1111,2005)"/>
<path d="M0 0 C0.77988281 -0.00128906 1.55976562 -0.00257812 2.36328125 -0.00390625 C3.57951172 0.00189453 3.57951172 0.00189453 4.8203125 0.0078125 C5.62339844 0.00394531 6.42648437 0.00007813 7.25390625 -0.00390625 C11.28224536 0.00273022 15.01472354 0.13027362 18.9453125 1.1328125 C18.9453125 1.4628125 18.9453125 1.7928125 18.9453125 2.1328125 C5.5803125 2.6278125 5.5803125 2.6278125 -8.0546875 3.1328125 C-8.3846875 4.4528125 -8.7146875 5.7728125 -9.0546875 7.1328125 C-11.3046875 8.1953125 -11.3046875 8.1953125 -14.0546875 9.1328125 C-14.9415625 9.6690625 -15.8284375 10.2053125 -16.7421875 10.7578125 C-19.0546875 12.1328125 -19.0546875 12.1328125 -21.0546875 12.1328125 C-20.3046875 10.1953125 -20.3046875 10.1953125 -19.0546875 8.1328125 C-16.9296875 7.3828125 -16.9296875 7.3828125 -15.0546875 7.1328125 C-15.0546875 6.4728125 -15.0546875 5.8128125 -15.0546875 5.1328125 C-13.7851345 4.48446596 -12.51399044 3.83923435 -11.2421875 3.1953125 C-10.53449219 2.83566406 -9.82679687 2.47601562 -9.09765625 2.10546875 C-5.96147331 0.61233385 -3.43358781 0.00548121 0 0 Z " fill="#4F4F4F" transform="translate(1380.0546875,1772.8671875)"/>
<path d="M0 0 C0.66 0 1.32 0 2 0 C2.474375 0.639375 2.94875 1.27875 3.4375 1.9375 C4.9091365 4.28372963 4.9091365 4.28372963 8 5 C10.22587165 8.33880747 10.64322171 10.64102926 11.375 14.5625 C12.46133168 19.89540096 13.87448653 24.68340483 16.01171875 29.67578125 C17.03890167 32.09148813 17.94941604 34.52109675 18.8125 37 C19.06644531 37.721875 19.32039063 38.44375 19.58203125 39.1875 C20 41 20 41 19 43 C18.67 41.68 18.34 40.36 18 39 C17.34 39 16.68 39 16 39 C15.15919981 36.58570231 14.32718598 34.16896007 13.5 31.75 C13.26152344 31.06808594 13.02304688 30.38617187 12.77734375 29.68359375 C11.60578713 26.23586997 11 23.68297096 11 20 C10.34 20 9.68 20 9 20 C8.90203125 19.15695312 8.8040625 18.31390625 8.703125 17.4453125 C8.55359375 16.34960938 8.4040625 15.25390625 8.25 14.125 C8.11078125 13.03445313 7.9715625 11.94390625 7.828125 10.8203125 C7.31153545 7.88535732 7.31153545 7.88535732 5.03125 6.8125 C4.3609375 6.544375 3.690625 6.27625 3 6 C1.25 2.875 1.25 2.875 0 0 Z " fill="#404040" transform="translate(1507,1661)"/>
<path d="M0 0 C1.08190305 3.24570914 0.94437884 4.03347924 0.07421875 7.203125 C-0.14556641 8.01910156 -0.36535156 8.83507813 -0.59179688 9.67578125 C-0.94854492 10.95001953 -0.94854492 10.95001953 -1.3125 12.25 C-1.53873047 13.08402344 -1.76496094 13.91804688 -1.99804688 14.77734375 C-3.29252985 19.52999883 -4.64670109 24.26345381 -6 29 C3.24 29 12.48 29 22 29 C22 29.33 22 29.66 22 30 C18.04924621 30.16755938 14.09827679 30.3281242 10.14697266 30.48217773 C8.14079929 30.56187238 6.13484924 30.64712518 4.12890625 30.73242188 C2.87207031 30.78076172 1.61523438 30.82910156 0.3203125 30.87890625 C-0.84226074 30.9260376 -2.00483398 30.97316895 -3.20263672 31.02172852 C-6 31 -6 31 -8 30 C-8.28091697 25.05737979 -7.32537893 21.34023574 -5.6875 16.6875 C-5.4603833 16.03322021 -5.2332666 15.37894043 -4.99926758 14.70483398 C-4.33843599 12.80127252 -3.66938352 10.90057105 -3 9 C-2.3915569 7.18893109 -1.78648071 5.37672042 -1.1875 3.5625 C-0.795625 2.386875 -0.40375 1.21125 0 0 Z " fill="#5C5C5C" transform="translate(1416,1919)"/>
<path d="M0 0 C0.75 1.5625 0.75 1.5625 1 4 C-0.13084437 6.50286409 -1.52139516 8.67007722 -3 11 C-3.66 11 -4.32 11 -5 11 C-5.268125 12.155 -5.53625 13.31 -5.8125 14.5 C-6.88385122 18.81623514 -8.37472237 22.86292967 -10 27 C-10.66 27 -11.32 27 -12 27 C-12.19335938 27.59167969 -12.38671875 28.18335938 -12.5859375 28.79296875 C-13.94414719 32.9146645 -15.32050585 36.9950524 -17 41 C-18.48293482 37.14436946 -17.5653226 34.72695857 -16 31 C-15.37609375 30.11183594 -14.7521875 29.22367188 -14.109375 28.30859375 C-11.75858568 24.62133717 -10.36053046 21.0454936 -8.9375 16.9375 C-5.74427607 7.81521308 -5.74427607 7.81521308 -3 4 C-2.34 4 -1.68 4 -1 4 C-0.67 2.68 -0.34 1.36 0 0 Z " fill="#616161" transform="translate(1326,1843)"/>
<path d="M0 0 C0.33 0 0.66 0 1 0 C0.25 6.625 0.25 6.625 -2 10 C-2.66 10 -3.32 10 -4 10 C-4.33 11.65 -4.66 13.3 -5 15 C-5.66 15 -6.32 15 -7 15 C-7.10957031 15.70125 -7.21914062 16.4025 -7.33203125 17.125 C-8.32906005 23.09096094 -9.68104379 28.41342368 -12 34 C-12.99 34 -13.98 34 -15 34 C-12.66666667 27 -10.33333333 20 -8 13 C-7.34 13 -6.68 13 -6 13 C-5.81824219 12.39671875 -5.63648438 11.7934375 -5.44921875 11.171875 C-2.88367013 3.01474604 -2.88367013 3.01474604 0 0 Z " fill="#767676" transform="translate(1315,1842)"/>
<path d="M0 0 C1.11722805 3.35168414 0.93118228 3.8501806 -0.25 7 C-1.89237994 11.53894093 -3.05996202 16.11412295 -4.15625 20.8125 C-4.4346875 21.534375 -4.713125 22.25625 -5 23 C-5.99 23.33 -6.98 23.66 -8 24 C-8.70491267 26.32206525 -9.37212429 28.65593068 -10 31 C-10.66 31.33 -11.32 31.66 -12 32 C-11.69024532 30.22868439 -11.37709575 28.45796222 -11.0625 26.6875 C-10.80146484 25.20830078 -10.80146484 25.20830078 -10.53515625 23.69921875 C-10 21 -10 21 -9 18 C-8.34 17.67 -7.68 17.34 -7 17 C-6.08845742 14.52539562 -5.26750869 12.08132397 -4.5 9.5625 C-2.26355422 2.26355422 -2.26355422 2.26355422 0 0 Z " fill="#4E4E4E" transform="translate(1335,1794)"/>
<path d="M0 0 C-1.65 0.66 -3.3 1.32 -5 2 C-5 2.66 -5 3.32 -5 4 C-5.969375 4.268125 -6.93875 4.53625 -7.9375 4.8125 C-8.948125 5.204375 -9.95875 5.59625 -11 6 C-11.33 6.99 -11.66 7.98 -12 9 C-13.65744104 10.01521769 -15.32545124 11.01325574 -17 12 C-19.13303997 14.0663397 -19.13303997 14.0663397 -21.0625 16.375 C-21.74828125 17.17292969 -22.4340625 17.97085937 -23.140625 18.79296875 C-24.06101562 19.88544922 -24.06101562 19.88544922 -25 21 C-26.1446875 22.3303125 -26.1446875 22.3303125 -27.3125 23.6875 C-29.23561534 26.32288028 -30.62612858 29.04617644 -32 32 C-33 29 -33 29 -32.109375 26.84375 C-31.43648437 25.68359375 -31.43648437 25.68359375 -30.75 24.5 C-30.31171875 23.7265625 -29.8734375 22.953125 -29.421875 22.15625 C-28.09176079 20.13915373 -26.76286177 18.63660907 -25 17 C-24.236875 16.21625 -23.47375 15.4325 -22.6875 14.625 C-20.76309584 12.74534942 -18.89154161 11.05851662 -16.8125 9.375 C-13.88119654 7.12277665 -13.88119654 7.12277665 -12 4 C-9.375 3.3125 -9.375 3.3125 -7 3 C-6.67 2.01 -6.34 1.02 -6 0 C-3 -1 -3 -1 0 0 Z " fill="#707070" transform="translate(1545,1535)"/>
<path d="M0 0 C2.81256281 -0.02684312 5.62487241 -0.04676188 8.4375 -0.0625 C9.23994141 -0.07087891 10.04238281 -0.07925781 10.86914062 -0.08789062 C12.91295221 -0.0965143 14.95683902 -0.0522815 17 0 C17.33 0.33 17.66 0.66 18 1 C20.66426685 1.16003488 23.30560428 1.25942889 25.97265625 1.31640625 C26.77029892 1.33718735 27.56794159 1.35796844 28.38975525 1.37937927 C30.94724611 1.44496158 33.5048428 1.50379967 36.0625 1.5625 C37.79232882 1.60567699 39.52214679 1.64929101 41.25195312 1.69335938 C45.5011926 1.80065172 49.7505389 1.90189426 54 2 C54 2.33 54 2.66 54 3 C47.27395867 3.05080039 40.54796702 3.08577579 33.82177734 3.10986328 C31.53464916 3.11990733 29.24753377 3.13354508 26.96044922 3.15087891 C23.66891314 3.17519708 20.37754718 3.18649924 17.0859375 3.1953125 C16.06696381 3.20563507 15.04799011 3.21595764 13.99813843 3.22659302 C8.9252964 3.22739081 4.74830624 3.03297852 0 1 C0 0.67 0 0.34 0 0 Z " fill="#4D4D4D" transform="translate(1115,2092)"/>
<path d="M0 0 C0 0.33 0 0.66 0 1 C-1.25135742 1.05534912 -2.50271484 1.11069824 -3.79199219 1.16772461 C-8.43638873 1.37422948 -13.08052832 1.58608752 -17.72460938 1.79956055 C-19.73430893 1.89119065 -21.74407515 1.98137051 -23.75390625 2.07006836 C-26.64341705 2.1978407 -29.53264763 2.33083317 -32.421875 2.46484375 C-33.31992859 2.50343002 -34.21798218 2.5420163 -35.14324951 2.58177185 C-35.98381897 2.62173782 -36.82438843 2.6617038 -37.69042969 2.70288086 C-38.79629425 2.75284462 -38.79629425 2.75284462 -39.92449951 2.80381775 C-42.03509394 3.00331718 -43.95149148 3.46823392 -46 4 C-47.58211573 4.06548492 -49.16670081 4.08578381 -50.75 4.0625 C-51.54921875 4.05347656 -52.3484375 4.04445313 -53.171875 4.03515625 C-53.77515625 4.02355469 -54.3784375 4.01195312 -55 4 C-54.67 3.01 -54.34 2.02 -54 1 C-35.98635554 0.27005816 -18.03043176 -0.15595184 0 0 Z " fill="#818181" transform="translate(1401,1957)"/>
<path d="M0 0 C1.16161779 2.86578759 0.9946154 4.01630163 0.00390625 7.015625 C-0.70958984 8.61664062 -0.70958984 8.61664062 -1.4375 10.25 C-1.91058594 11.32765625 -2.38367187 12.4053125 -2.87109375 13.515625 C-3.24363281 14.33546875 -3.61617187 15.1553125 -4 16 C-1.69 16.33 0.62 16.66 3 17 C4.13494249 22.39097682 4.07411518 27.51547704 4 33 C7.3 33 10.6 33 14 33 C14.33 34.98 14.66 36.96 15 39 C14.34 38.34 13.68 37.68 13 37 C13 36.01 13 35.02 13 34 C9.7 34 6.4 34 3 34 C2.34 29.05 1.68 24.1 1 19 C-1.31 18.34 -3.62 17.68 -6 17 C-5.34496718 12.94180817 -4.05440879 9.46028718 -2.4375 5.6875 C-1.75494141 4.08455078 -1.75494141 4.08455078 -1.05859375 2.44921875 C-0.53458984 1.23685547 -0.53458984 1.23685547 0 0 Z " fill="#9C9C9C" transform="translate(1308,1884)"/>
<path d="M0 0 C-3.34413236 2.34089265 -6.26247476 3.31274763 -10.1875 4.1875 C-12.80289916 4.8101655 -12.80289916 4.8101655 -15 6 C-16.54134227 8.78436022 -16.68160011 10.7629345 -17 14 C-17.66 14 -18.32 14 -19 14 C-19.66 16.31 -20.32 18.62 -21 21 C-21.66 21 -22.32 21 -23 21 C-21.84926424 16.48557511 -20.47989332 12.92649776 -18 9 C-17.690625 8.13375 -17.38125 7.2675 -17.0625 6.375 C-15.75095426 3.44330951 -14.81127528 2.5535995 -12 1 C-7.69884633 -0.49566866 -4.43603739 -1.38626168 0 0 Z " fill="#2B2B2B" transform="translate(1456,1760)"/>
<path d="M0 0 C1.33333333 0.66666667 2.66666667 1.33333333 4 2 C4.969375 2.45375 5.93875 2.9075 6.9375 3.375 C10.58130197 5.30844594 13.63902462 7.52067893 16.4375 10.5625 C18.67814431 12.62389276 21.2583711 13.72057318 24 15 C20.86559131 16.0448029 19.97903963 16.15317663 17 15 C16.34 14.01 15.68 13.02 15 12 C12.7568394 10.768122 12.7568394 10.768122 10.1875 9.6875 C5.4624656 7.43780924 2.93562515 5.30558355 0 1 C0 0.67 0 0.34 0 0 Z " fill="#7A7A7A" transform="translate(1525,1961)"/>
<path d="M0 0 C0.99 0.66 1.98 1.32 3 2 C5.09192361 14.22339676 1.10915355 27.52026624 -5 38 C-5.66 38 -6.32 38 -7 38 C-5.72960842 33.98792613 -4.21315182 30.24852585 -2.4375 26.4375 C1.14549221 17.93978396 1.88872756 9.02392054 0 0 Z " fill="#ACACAC" transform="translate(1653,1635)"/>
<path d="M0 0 C0.66 0 1.32 0 2 0 C2.79438524 3.46922149 3.10272224 6.60274615 3.02172852 10.1574707 C3.00163223 11.15813065 2.98153595 12.15879059 2.96083069 13.18977356 C2.93379562 14.2576561 2.90676056 15.32553864 2.87890625 16.42578125 C2.85529526 17.52850876 2.83168427 18.63123627 2.80735779 19.76737976 C2.73090671 23.28255685 2.64680228 26.79750329 2.5625 30.3125 C2.50926076 32.6985565 2.45652049 35.08462418 2.40429688 37.47070312 C2.27531667 43.31394418 2.14005569 49.15701449 2 55 C1.67 55 1.34 55 1 55 C0.67 36.85 0.34 18.7 0 0 Z " fill="#AFAFAF" transform="translate(1566,2125)"/>
<path d="M0 0 C3.43116282 2.89504363 6.16248651 6.53192795 9 10 C5.70947183 10 4.66523085 9.85758514 2 8 C0.46882955 5.73721227 -0.73785986 3.43412742 -2 1 C-5.63 1.33 -9.26 1.66 -13 2 C-13.12375 2.969375 -13.2475 3.93875 -13.375 4.9375 C-13.58125 5.948125 -13.7875 6.95875 -14 8 C-14.99 8.495 -14.99 8.495 -16 9 C-15.125 3.25 -15.125 3.25 -14 1 C-9.50201057 -0.58916569 -4.54423504 -1.81769402 0 0 Z " fill="#838383" transform="translate(1357,1803)"/>
<path d="M0 0 C0.6875 1.6875 0.6875 1.6875 1 4 C0.52820312 4.74121094 0.05640625 5.48242188 -0.4296875 6.24609375 C-3.37835782 11.41726931 -3.6318864 18.39824752 -2.609375 24.2265625 C-2.11456847 25.83114939 -1.56057822 27.4171909 -1 29 C-0.875 31.9375 -0.875 31.9375 -1 34 C-5.1802227 29.8197773 -5.31579157 24.41032544 -5.375 18.75 C-5.30698794 12.48052507 -4.74426462 4.74426462 0 0 Z " fill="#383838" transform="translate(1508,1627)"/>
<path d="M0 0 C1 2 1 2 0.44140625 4.1640625 C0.15136719 4.97617188 -0.13867188 5.78828125 -0.4375 6.625 C-0.72496094 7.44226562 -1.01242187 8.25953125 -1.30859375 9.1015625 C-1.53675781 9.72804688 -1.76492188 10.35453125 -2 11 C-2.66 11 -3.32 11 -4 11 C-4.391875 12.2375 -4.78375 13.475 -5.1875 14.75 C-7.13881177 20.63207922 -9.56246179 26.30598782 -12 32 C-12.33 32 -12.66 32 -13 32 C-13.58619394 26.3725382 -12.52660728 23.66718694 -9.3671875 19.03515625 C-5.61319975 13.44707734 -3.3140698 7.2810466 -1 1 C-0.67 0.67 -0.34 0.34 0 0 Z " fill="#383838" transform="translate(1342,1804)"/>
<path d="M0 0 C10.3734499 -0.16494885 20.6510926 0.34956362 31 1 C31.33 1.99 31.66 2.98 32 4 C25.18375832 4.18963269 18.82898389 4.24618816 12.2109375 2.51171875 C8.19939229 1.58325157 4.09776538 1.32508368 0 1 C0 0.67 0 0.34 0 0 Z " fill="#8C8C8C" transform="translate(1493,1957)"/>
<path d="M0 0 C0.33 0.66 0.66 1.32 1 2 C2.01707031 1.89171875 2.01707031 1.89171875 3.0546875 1.78125 C11.42896911 0.94614158 19.69993753 0.25261843 28 2 C28 2.66 28 3.32 28 4 C18.60644064 4.14256667 9.35927791 3.72492332 0 3 C0 2.01 0 1.02 0 0 Z " fill="#939393" transform="translate(1317,1957)"/>
<path d="M0 0 C3.76916352 0.50934642 5.53414972 1.11218604 8 4 C9.09765625 5.97265625 9.09765625 5.97265625 10.0625 8.0625 C11.22899298 10.57818969 12.01051026 12.01051026 14 14 C13.625 16.125 13.625 16.125 13 18 C8.36165426 12.84628251 5.19808635 7.59425904 3 1 C2.01 0.67 1.02 0.34 0 0 Z " fill="#5A5A5A" transform="translate(1629,1716)"/>
<path d="M0 0 C0.66 0 1.32 0 2 0 C2.4517737 4.08024864 2.85529131 8.16386794 3.25 12.25 C3.37890625 13.40886719 3.5078125 14.56773438 3.640625 15.76171875 C3.74375 16.87675781 3.846875 17.99179688 3.953125 19.140625 C4.05786133 20.16704102 4.16259766 21.19345703 4.27050781 22.25097656 C4 25 4 25 2.00292969 27.36621094 C1.34196289 27.90536133 0.68099609 28.44451172 0 29 C-0.66 28.67 -1.32 28.34 -2 28 C-1.25979614 27.18450684 -1.25979614 27.18450684 -0.50463867 26.35253906 C1.37968611 23.40635155 1.2768651 21.82278528 1.07421875 18.359375 C1.01943359 17.28945312 0.96464844 16.21953125 0.90820312 15.1171875 C0.83537109 14.00601562 0.76253906 12.89484375 0.6875 11.75 C0.62626953 10.62335938 0.56503906 9.49671875 0.50195312 8.3359375 C0.34882994 5.55616267 0.18099971 2.77807613 0 0 Z " fill="#363636" transform="translate(1527,1704)"/>
<path d="M0 0 C0 0.99 0 1.98 0 3 C-2.31 3.66 -4.62 4.32 -7 5 C-7.04898437 5.92683594 -7.09796875 6.85367187 -7.1484375 7.80859375 C-7.22320313 9.00613281 -7.29796875 10.20367188 -7.375 11.4375 C-7.47941406 13.22994141 -7.47941406 13.22994141 -7.5859375 15.05859375 C-7.79089844 16.51458984 -7.79089844 16.51458984 -8 18 C-8.66 18.33 -9.32 18.66 -10 19 C-10 14.05 -10 9.1 -10 4 C-7.68880208 3.25130208 -5.37760417 2.50260417 -3.06640625 1.75390625 C-1.03780412 1.17844506 -1.03780412 1.17844506 0 0 Z " fill="#3A3A3A" transform="translate(1290,1900)"/>
<path d="M0 0 C1.9375 0.375 1.9375 0.375 4 1 C4.33 1.66 4.66 2.32 5 3 C5.99 3.33 6.98 3.66 8 4 C8 4.66 8 5.32 8 6 C10.475 6.99 10.475 6.99 13 8 C13 8.99 13 9.98 13 11 C13.66 11 14.32 11 15 11 C15 11.66 15 12.32 15 13 C11.65902615 12.40339753 9.45699871 11.36924875 7 9 C7 7.68 7 6.36 7 5 C5.68 4.67 4.36 4.34 3 4 C3 3.34 3 2.68 3 2 C2.01 2 1.02 2 0 2 C0 1.34 0 0.68 0 0 Z " fill="#565656" transform="translate(1617,1537)"/>
<path d="M0 0 C1.4926138 3.88079587 0.29441866 6.1710553 -1 10 C-1.7951459 13.64176822 -2.50852947 17.29394529 -3.21875 20.953125 C-4 24 -4 24 -6 26 C-3.16666667 3.16666667 -3.16666667 3.16666667 0 0 Z " fill="#A8A8A8" transform="translate(1421,1895)"/>
<path d="M0 0 C-7.97740335 3.07899778 -15.45833768 5.26398375 -24 6 C-20.56019053 2.90590003 -17.36828477 2.2286303 -12.875 1.375 C-2.25874421 -0.67762326 -2.25874421 -0.67762326 0 0 Z " fill="#808080" transform="translate(1510,1743)"/>
<path d="M0 0 C1.13315882 3.39947645 0.86787136 4.07347148 -0.3125 7.3125 C-0.73402344 8.49585938 -0.73402344 8.49585938 -1.1640625 9.703125 C-1.43992187 10.46109375 -1.71578125 11.2190625 -2 12 C-2.391875 13.175625 -2.78375 14.35125 -3.1875 15.5625 C-3.455625 16.366875 -3.72375 17.17125 -4 18 C-4.66 17.34 -5.32 16.68 -6 16 C-5.60289509 12.35159866 -4.37766068 9.13337255 -3 5.75 C-2.649375 4.87859375 -2.29875 4.0071875 -1.9375 3.109375 C-1 1 -1 1 0 0 Z " fill="#646464" transform="translate(1335,1794)"/>
<path d="M0 0 C1.51400391 0.01740234 1.51400391 0.01740234 3.05859375 0.03515625 C4.07050781 0.04417969 5.08242187 0.05320312 6.125 0.0625 C7.29869141 0.07990234 7.29869141 0.07990234 8.49609375 0.09765625 C8.16609375 0.75765625 7.83609375 1.41765625 7.49609375 2.09765625 C4.51312765 2.69537724 1.5327857 2.8410344 -1.50390625 3.09765625 C-1.83390625 7.38765625 -2.16390625 11.67765625 -2.50390625 16.09765625 C-2.83390625 16.09765625 -3.16390625 16.09765625 -3.50390625 16.09765625 C-3.5307572 13.61841824 -3.55067172 11.13946785 -3.56640625 8.66015625 C-3.57897461 7.59958008 -3.57897461 7.59958008 -3.59179688 6.51757812 C-3.60044213 4.71072066 -3.55610636 2.90378022 -3.50390625 1.09765625 C-2.50390625 0.09765625 -2.50390625 0.09765625 0 0 Z " fill="#444444" transform="translate(1271.50390625,1918.90234375)"/>
<path d="M0 0 C5.26870634 0.74171109 10.26976631 2.10909615 15.375 3.5625 C16.20644531 3.79646484 17.03789063 4.03042969 17.89453125 4.27148438 C19.93048609 4.84482798 21.96535527 5.4220244 24 6 C20.04872205 7.31709265 16.90615559 6.42504728 12.9375 5.625 C12.20466797 5.48578125 11.47183594 5.3465625 10.71679688 5.203125 C5.29546523 4.14773261 5.29546523 4.14773261 3 3 C3 2.34 3 1.68 3 1 C2.01 0.67 1.02 0.34 0 0 Z " fill="#202020" transform="translate(1580,1525)"/>
<path d="M0 0 C0.33 0 0.66 0 1 0 C0.25 6.625 0.25 6.625 -2 10 C-2.66 10 -3.32 10 -4 10 C-4.33 11.65 -4.66 13.3 -5 15 C-6.04537095 12.29840881 -6.08156212 11.21584123 -5.0390625 8.45703125 C-4.57242187 7.58433594 -4.10578125 6.71164062 -3.625 5.8125 C-3.16351562 4.93207031 -2.70203125 4.05164062 -2.2265625 3.14453125 C-1 1 -1 1 0 0 Z " fill="#4C4C4C" transform="translate(1315,1842)"/>
<path d="M0 0 C0.66 0 1.32 0 2 0 C6.71084585 10.54332167 6.71084585 10.54332167 8 16 C7.67 16.66 7.34 17.32 7 18 C6.67 16.68 6.34 15.36 6 14 C5.34 14 4.68 14 4 14 C3.32968281 12.0429132 2.66385317 10.08428887 2 8.125 C1.62875 7.03445313 1.2575 5.94390625 0.875 4.8203125 C0 2 0 2 0 0 Z " fill="#3A3A3A" transform="translate(1519,1686)"/>
<path d="M0 0 C1.25127906 3.54667178 0.72285053 5.72253438 -0.4375 9.25 C-0.72496094 10.14203125 -1.01242187 11.0340625 -1.30859375 11.953125 C-1.53675781 12.62859375 -1.76492188 13.3040625 -2 14 C-2.66 14 -3.32 14 -4 14 C-4.33 15.65 -4.66 17.3 -5 19 C-6.02568631 15.87442888 -6.00835842 14.216196 -4.75 11.1875 C-4.47027344 10.50042969 -4.19054688 9.81335937 -3.90234375 9.10546875 C-3.60457031 8.41066406 -3.30679687 7.71585938 -3 7 C-2.71253906 6.31550781 -2.42507813 5.63101562 -2.12890625 4.92578125 C-1.43075222 3.27893945 -0.71695129 1.63874581 0 0 Z " fill="#505050" transform="translate(1299,1876)"/>
<path d="M0 0 C1.65 0 3.3 0 5 0 C5 0.66 5 1.32 5 2 C5.5775 2.28875 6.155 2.5775 6.75 2.875 C9.875 4.4375 9.875 4.4375 13 6 C13 6.66 13 7.32 13 8 C13.99 8.33 14.98 8.66 16 9 C15.01 9.495 15.01 9.495 14 10 C12.7625 9.1646875 12.7625 9.1646875 11.5 8.3125 C8.23818977 6.12755535 4.89797671 4.08248404 1.5390625 2.05078125 C1.03117187 1.70402344 0.52328125 1.35726563 0 1 C0 0.67 0 0.34 0 0 Z " fill="#363636" transform="translate(1568,1983)"/>
<path d="M0 0 C5.22861968 2.35287886 9.51750177 5.48453819 14 9 C12.1875 9.625 12.1875 9.625 10 10 C9.01 9.34 8.02 8.68 7 8 C7 7.34 7 6.68 7 6 C6.030625 5.7525 5.06125 5.505 4.0625 5.25 C3.051875 4.8375 2.04125 4.425 1 4 C0.125 1.875 0.125 1.875 0 0 Z " fill="#2B2B2B" transform="translate(1552,1980)"/>
<path d="M0 0 C0.66 0 1.32 0 2 0 C2 2.64 2 5.28 2 8 C-1.96 8 -5.92 8 -10 8 C-8 6 -8 6 -6.0546875 5.8046875 C-4.03645833 5.86979167 -2.01822917 5.93489583 0 6 C0 4.02 0 2.04 0 0 Z " fill="#C1C1C1" transform="translate(1278,1911)"/>
<path d="M0 0 C0.99 0 1.98 0 3 0 C2.67 0.99 2.34 1.98 2 3 C0.35965807 3.72904086 -1.31301918 4.38655243 -3 5 C-3.886875 5.53625 -4.77375 6.0725 -5.6875 6.625 C-8 8 -8 8 -10 8 C-9.01958581 5.54896452 -8.3486182 4.23241214 -6.125 2.75 C-4 2 -4 2 0 2 C0 1.34 0 0.68 0 0 Z " fill="#383838" transform="translate(1369,1777)"/>
<path d="M0 0 C5.61 0 11.22 0 17 0 C15.02 0.99 15.02 0.99 13 2 C12.67 2.33 12.34 2.66 12 3 C7.53925362 3.31121486 4.1630737 2.58593284 0 1 C0 0.67 0 0.34 0 0 Z " fill="#2F2F2F" transform="translate(1115,2092)"/>
<path d="M0 0 C1.46726798 3.81489674 0.43336419 6.29011622 -1 10 C-1.66 10 -2.32 10 -3 10 C-3.66 12.31 -4.32 14.62 -5 17 C-5.66 17 -6.32 17 -7 17 C-5.84926424 12.48557511 -4.47989332 8.92649776 -2 5 C-1.30177383 3.34630643 -0.62501395 1.68272986 0 0 Z " fill="#6B6B6B" transform="translate(1440,1764)"/>
<path d="M0 0 C1.64574566 -0.02688151 3.29161413 -0.04634123 4.9375 -0.0625 C5.85402344 -0.07410156 6.77054688 -0.08570313 7.71484375 -0.09765625 C10 0 10 0 11 1 C12.34747084 1.23075082 13.70377565 1.41153063 15.0625 1.5625 C16.361875 1.706875 17.66125 1.85125 19 2 C19 2.33 19 2.66 19 3 C16.95863605 3.05451714 14.91684144 3.09302485 12.875 3.125 C11.16957031 3.15980469 11.16957031 3.15980469 9.4296875 3.1953125 C5.94242233 2.99672109 3.2446138 2.2524801 0 1 C0 0.67 0 0.34 0 0 Z " fill="#AFAFAF" transform="translate(1473,1954)"/>
<path d="M0 0 C7.26 0 14.52 0 22 0 C22 0.33 22 0.66 22 1 C21.06027344 1.09087891 21.06027344 1.09087891 20.1015625 1.18359375 C19.28429688 1.26738281 18.46703125 1.35117188 17.625 1.4375 C16.81289062 1.51871094 16.00078125 1.59992188 15.1640625 1.68359375 C12.95727195 1.89090114 12.95727195 1.89090114 11 3 C9.11515056 2.75378093 7.23977913 2.43111913 5.375 2.0625 C4.37210938 1.86785156 3.36921875 1.67320313 2.3359375 1.47265625 C1.17964844 1.23869141 1.17964844 1.23869141 0 1 C0 0.67 0 0.34 0 0 Z " fill="#CACACA" transform="translate(1424,1954)"/>
<path d="M0 0 C1.37478516 0.01740234 1.37478516 0.01740234 2.77734375 0.03515625 C3.69644531 0.04417969 4.61554688 0.05320312 5.5625 0.0625 C6.27277344 0.07410156 6.98304687 0.08570313 7.71484375 0.09765625 C7.71484375 0.42765625 7.71484375 0.75765625 7.71484375 1.09765625 C5.07484375 1.42765625 2.43484375 1.75765625 -0.28515625 2.09765625 C-0.61515625 5.06765625 -0.94515625 8.03765625 -1.28515625 11.09765625 C-1.94515625 11.09765625 -2.60515625 11.09765625 -3.28515625 11.09765625 C-3.31203776 9.45191059 -3.33149748 7.80604212 -3.34765625 6.16015625 C-3.35925781 5.24363281 -3.37085938 4.32710937 -3.3828125 3.3828125 C-3.25079574 0.2936203 -3.0891922 0.13201676 0 0 Z " fill="#313131" transform="translate(1114.28515625,1968.90234375)"/>
<path d="M0 0 C0.33 0 0.66 0 1 0 C1.22262606 2.08185451 1.42757926 4.16560426 1.625 6.25 C1.74101563 7.41015625 1.85703125 8.5703125 1.9765625 9.765625 C1.99955595 12.93872091 1.69705154 14.38317244 0 17 C-0.68057365 11.64048249 -1.22524508 6.40588195 -1 1 C-0.67 0.67 -0.34 0.34 0 0 Z " fill="#B3B3B3" transform="translate(1110,1968)"/>
<path d="M0 0 C2.1479894 0.44812018 4.29336561 0.90878348 6.4375 1.375 C8.22994141 1.75785156 8.22994141 1.75785156 10.05859375 2.1484375 C11.51458984 2.56996094 11.51458984 2.56996094 13 3 C13.33 3.66 13.66 4.32 14 5 C7.77551932 5.42927453 4.84121441 4.99400188 0 1 C0 0.67 0 0.34 0 0 Z " fill="#5E5E5E" transform="translate(1368,1815)"/>
<path d="M0 0 C-0.95117134 1.1725131 -1.91117009 2.33787015 -2.875 3.5 C-3.40867187 4.1496875 -3.94234375 4.799375 -4.4921875 5.46875 C-4.98976563 5.9740625 -5.48734375 6.479375 -6 7 C-6.66 7 -7.32 7 -8 7 C-8.33 7.66 -8.66 8.32 -9 9 C-8.47731534 6.23723823 -7.89130413 3.6739124 -7 1 C-4.53721199 -0.231394 -2.7204945 -0.07159196 0 0 Z " fill="#2E2E2E" transform="translate(1343,1793)"/>
<path d="M0 0 C0.66 1.32 1.32 2.64 2 4 C2.33 4.33 2.66 4.66 3 5 C3.32049797 8.84597567 2.59555725 11.50971852 1 15 C0.67 15 0.34 15 0 15 C0 10.05 0 5.1 0 0 Z " fill="#767676" transform="translate(1110,1986)"/>
<path d="M0 0 C0.99 0 1.98 0 3 0 C3.33 0.66 3.66 1.32 4 2 C4.763125 2.0825 5.52625 2.165 6.3125 2.25 C10.16828301 3.32603247 11.06786722 5.63665775 13 9 C2.70588235 4.05882353 2.70588235 4.05882353 0 0 Z " fill="#7B7B7B" transform="translate(1542,1966)"/>
<path d="M0 0 C0.33 0.66 0.66 1.32 1 2 C0.09176973 4.43557572 -0.86828071 6.76195517 -1.9375 9.125 C-2.22818359 9.78371094 -2.51886719 10.44242188 -2.81835938 11.12109375 C-3.53860198 12.75049505 -4.26841143 14.37566132 -5 16 C-6.19868356 11.9813918 -5.64024677 9.90534945 -4 6 C-2.71927629 3.9659094 -1.39712274 1.95597184 0 0 Z " fill="#313131" transform="translate(1314,1868)"/>
<path d="M0 0 C1.485 0.99 1.485 0.99 3 2 C3.36328125 4.6796875 3.36328125 4.6796875 3.3125 7.875 C3.30863281 8.92429687 3.30476563 9.97359375 3.30078125 11.0546875 C3.01058577 13.89634192 2.46536915 15.58301662 1 18 C1.01160156 17.28714844 1.02320313 16.57429688 1.03515625 15.83984375 C1.08606026 10.43674634 0.94608271 5.32171525 0 0 Z " fill="#858585" transform="translate(1653,1635)"/>
<path d="M0 0 C1.98 0 3.96 0 6 0 C5.01 0.66 4.02 1.32 3 2 C1.7811879 5.55672179 1.7811879 5.55672179 1 9 C0.34 9 -0.32 9 -1 9 C-0.67 6.03 -0.34 3.06 0 0 Z " fill="#818181" transform="translate(1567,2099)"/>
<path d="M0 0 C0.66 0 1.32 0 2 0 C1.01 2.97 0.02 5.94 -1 9 C-1.66 9 -2.32 9 -3 9 C-3 9.66 -3 10.32 -3 11 C-3.66 10.67 -4.32 10.34 -5 10 C-3.35 6.7 -1.7 3.4 0 0 Z " fill="#626262" transform="translate(1416,1802)"/>
<path d="M0 0 C-3.33333333 1.66666667 -6.66666667 3.33333333 -10 5 C-10 4.34 -10 3.68 -10 3 C-10.66 2.67 -11.32 2.34 -12 2 C-8.09971775 -0.60018816 -4.52565431 -0.15085514 0 0 Z " fill="#3B3B3B" transform="translate(1491,1749)"/>
<path d="M0 0 C2.59515537 0.35069667 4.52570246 0.66623506 6.6875 2.1875 C8.44931529 4.62048302 9.1714857 7.13206588 10 10 C6.16115605 7.27240035 4.64598707 5.35010868 3 1 C2.01 0.67 1.02 0.34 0 0 Z " fill="#888888" transform="translate(1629,1716)"/>
<path d="M0 0 C-1.65 0.66 -3.3 1.32 -5 2 C-5 2.66 -5 3.32 -5 4 C-7.35438733 5.42944945 -8.48032433 6.08661261 -11.25 5.625 C-11.8275 5.41875 -12.405 5.2125 -13 5 C-11.5459375 4.5978125 -11.5459375 4.5978125 -10.0625 4.1875 C-8.5465625 3.5996875 -8.5465625 3.5996875 -7 3 C-6.67 2.01 -6.34 1.02 -6 0 C-3 -1 -3 -1 0 0 Z " fill="#838383" transform="translate(1545,1535)"/>
<path d="M0 0 C0.66 0.33 1.32 0.66 2 1 C1.27991594 5.60853797 -0.31295939 9.67237409 -2 14 C-3.21065165 10.36804504 -2.62784815 8.93468371 -1.5625 5.3125 C-1.27503906 4.31863281 -0.98757813 3.32476563 -0.69140625 2.30078125 C-0.46324219 1.54152344 -0.23507812 0.78226563 0 0 Z " fill="#191919" transform="translate(1416,1922)"/>
<path d="M0 0 C4.87685861 1.35468295 6.48592381 3.71675909 9 8 C8.67 8.66 8.34 9.32 8 10 C7.236875 9.21625 6.47375 8.4325 5.6875 7.625 C3.09108195 4.92742283 3.09108195 4.92742283 0 3 C0 2.01 0 1.02 0 0 Z " fill="#1D1D1D" transform="translate(1627,1715)"/>
<path d="M0 0 C1.26823485 3.65393537 0.75715321 6.49070026 0.0625 10.25 C-0.13214844 11.32765625 -0.32679687 12.4053125 -0.52734375 13.515625 C-0.68332031 14.33546875 -0.83929687 15.1553125 -1 16 C-1.33 16 -1.66 16 -2 16 C-2.05402274 13.89611431 -2.09280256 11.79183286 -2.125 9.6875 C-2.14820313 8.51574219 -2.17140625 7.34398437 -2.1953125 6.13671875 C-2 3 -2 3 0 0 Z " fill="#B6B6B6" transform="translate(1511,1567)"/>
<path d="M0 0 C0.66 0 1.32 0 2 0 C1.51171875 6.0546875 1.51171875 6.0546875 1 8 C0.01 8.66 -0.98 9.32 -2 10 C-1.34 6.7 -0.68 3.4 0 0 Z " fill="#252525" transform="translate(1428,1797)"/>
<path d="M0 0 C4.23429756 1.31061591 8.07407404 2.94356259 12 5 C11.67 5.66 11.34 6.32 11 7 C6.39727838 5.22972246 3.2870757 3.81300782 0 0 Z " fill="#272727" transform="translate(1605,1532)"/>
<path d="M0 0 C-2.90092502 1.93395001 -3.89674737 2.30131941 -7.1875 2.625 C-8.445625 2.74875 -9.70375 2.8725 -11 3 C-9 0 -9 0 -6.0625 -0.75 C-3 -1 -3 -1 0 0 Z " fill="#161616" transform="translate(1505,1746)"/>
<path d="M0 0 C0.99 0.33 1.98 0.66 3 1 C3 3.31 3 5.62 3 8 C2.01 8 1.02 8 0 8 C0 5.36 0 2.72 0 0 Z " fill="#2C2C2C" transform="translate(1111,1981)"/>
<path d="M0 0 C4.24822374 0.47202486 6.19989709 2.96655518 9 6 C5.59687262 4.94124926 2.98646769 3.99097846 0 2 C0 1.34 0 0.68 0 0 Z " fill="#383838" transform="translate(1530,1966)"/>
<path d="M0 0 C2.475 0.495 2.475 0.495 5 1 C5 1.66 5 2.32 5 3 C6.32 3.66 7.64 4.32 9 5 C6 5 6 5 3 4 C3 3.34 3 2.68 3 2 C2.01 1.67 1.02 1.34 0 1 C0 0.67 0 0.34 0 0 Z " fill="#6F6F6F" transform="translate(1533,1960)"/>
<path d="M0 0 C0 1.65 0 3.3 0 5 C-1.32 5.33 -2.64 5.66 -4 6 C-3.625 3.5625 -3.625 3.5625 -3 1 C-1 0 -1 0 0 0 Z " fill="#3C3C3C" transform="translate(1304,1870)"/>
<path d="M0 0 C3.625 -0.1875 3.625 -0.1875 7 0 C4.23776722 2.76223278 1.79293383 2.57856291 -2 3 C-1.34 2.01 -0.68 1.02 0 0 Z " fill="#B2B2B2" transform="translate(1464,1753)"/>
<path d="M0 0 C0.33 0.99 0.66 1.98 1 3 C-0.9375 5.6875 -0.9375 5.6875 -3 8 C-3.99 7.67 -4.98 7.34 -6 7 C-5.34 7 -4.68 7 -4 7 C-3.67 6.01 -3.34 5.02 -3 4 C-2.34 4 -1.68 4 -1 4 C-0.67 2.68 -0.34 1.36 0 0 Z " fill="#737373" transform="translate(1528,1725)"/>
</svg>
